<?xml version="1.0" standalone="no"?>
<!DOCTYPE svg PUBLIC "-//W3C//DTD SVG 20010904//EN"
 "http://www.w3.org/TR/2001/REC-SVG-20010904/DTD/svg10.dtd">
<svg version="1.0" xmlns="http://www.w3.org/2000/svg"
 width="354.000000pt" height="354.000000pt" viewBox="0 0 354.000000 354.000000"
 preserveAspectRatio="xMidYMid meet">
<metadata>
Created by potrace 1.14, written by Peter Selinger 2001-2017
</metadata>
<g transform="translate(0.000000,354.000000) scale(0.100000,-0.100000)"
fill="#000000" stroke="none">
<path d="M530 2885 c-1 -5 -4 -19 -6 -30 -2 -11 -7 -51 -10 -90 -9 -132 -15
-175 -26 -175 -6 0 -24 15 -40 33 l-29 32 7 -59 c9 -77 42 -167 92 -250 35
-56 40 -71 31 -92 -10 -28 2 -87 27 -136 8 -16 12 -28 9 -28 -6 0 -87 51 -95
60 -3 3 -25 21 -50 40 -25 19 -52 42 -61 52 -24 27 -31 22 -15 -10 25 -48 136
-153 223 -209 175 -114 314 -154 553 -158 91 -1 176 -5 190 -9 14 -3 50 -11
80 -17 30 -7 59 -15 63 -20 15 -12 -3 -49 -24 -49 -10 0 -20 -6 -20 -12 -2
-21 3 -43 10 -48 4 -3 8 -22 8 -42 2 -109 2 -107 32 -122 27 -14 28 -19 28
-75 -1 -39 5 -67 16 -85 11 -16 16 -40 14 -63 -4 -51 10 -100 41 -141 14 -19
27 -47 28 -64 3 -37 27 -75 55 -83 12 -4 41 -1 65 5 35 10 53 10 88 0 24 -6
53 -9 65 -5 28 8 52 46 55 84 1 16 9 38 18 48 32 36 50 87 53 147 1 33 9 79
18 101 10 25 14 54 10 77 -5 33 -3 39 20 47 34 13 37 20 39 95 1 36 5 66 9 66
4 0 9 12 12 26 3 19 -1 28 -17 35 -11 6 -26 21 -33 35 -10 22 -9 25 15 30 15
3 41 10 57 14 63 18 104 22 255 25 85 2 171 6 190 9 120 22 265 77 355 135 96
61 212 169 241 224 16 31 9 36 -15 9 -19 -20 -84 -72 -158 -125 l-51 -37 19
49 c25 67 30 98 19 127 -8 20 -4 33 17 67 63 99 112 233 113 306 0 22 -2 21
-34 -13 l-34 -37 -9 28 c-6 15 -11 62 -12 103 -1 41 -4 89 -7 105 -6 33 -12
67 -14 75 0 3 -5 -2 -10 -11 -5 -9 -12 -72 -15 -140 -7 -147 -12 -190 -25
-203 -17 -17 -27 5 -50 109 -22 103 -39 159 -47 151 -2 -2 -7 -28 -10 -57 -8
-74 -17 -104 -33 -104 -8 0 -34 39 -59 87 -42 80 -106 167 -116 157 -2 -2 14
-40 36 -84 63 -126 66 -205 9 -205 -31 0 -58 21 -104 83 -28 39 -105 101 -114
93 -2 -3 9 -22 25 -43 54 -69 74 -112 80 -166 7 -65 -8 -83 -63 -72 -28 5 -61
30 -141 106 -57 54 -109 99 -114 99 -5 0 16 -35 48 -77 65 -87 99 -151 107
-203 8 -57 -5 -67 -45 -33 -19 16 -56 47 -84 69 -49 38 -49 38 -31 9 10 -16
29 -41 41 -55 37 -41 72 -103 79 -140 15 -72 16 -74 32 -53 8 10 4 -10 -10
-50 -13 -37 -20 -70 -16 -72 13 -8 59 97 62 142 2 22 6 39 10 37 11 -7 -2 -86
-22 -131 -10 -24 -31 -58 -46 -78 -14 -19 -22 -35 -18 -35 15 0 60 43 83 80
18 28 21 30 16 10 -8 -26 -18 -41 -70 -99 l-30 -35 30 18 c17 10 43 30 60 45
30 27 21 9 -19 -36 -11 -13 -17 -25 -15 -27 6 -7 142 62 150 76 5 7 11 9 15 6
8 -9 60 26 90 60 11 13 35 52 53 88 33 67 55 81 63 39 6 -28 -50 -165 -80
-199 -35 -38 -35 -45 0 -39 80 11 112 38 189 155 77 118 101 131 49 28 -70
-138 -191 -227 -347 -254 -35 -6 -46 9 -15 18 39 13 125 111 159 181 36 75 45
127 18 105 -8 -7 -15 -17 -15 -22 0 -6 -16 -37 -36 -69 -42 -70 -117 -127
-212 -163 -147 -54 -170 -43 -147 69 13 63 13 146 0 203 -11 51 -22 27 -30
-63 -9 -113 -50 -195 -118 -240 l-28 -18 23 44 c17 33 24 65 27 126 l3 82 -48
-16 c-56 -18 -108 -53 -144 -97 -14 -17 -40 -46 -57 -64 -18 -19 -33 -39 -33
-44 0 -6 -7 -7 -16 -4 -9 4 -13 2 -8 -5 4 -8 -1 -9 -17 -4 -29 8 -59 41 -59
64 0 10 -7 6 -20 -14 l-20 -30 0 35 0 34 -30 -34 -29 -35 9 34 10 35 -31 -35
c-27 -31 -29 -32 -23 -9 6 24 5 24 -26 -7 -17 -18 -40 -35 -51 -38 -22 -7 -52
12 -43 26 3 5 -2 9 -10 9 -8 0 -32 21 -53 48 -73 91 -101 112 -191 141 l-33
10 2 -75 c1 -54 8 -88 25 -125 l23 -50 -30 18 c-37 22 -85 93 -100 145 -5 22
-12 69 -15 106 -9 117 -33 100 -38 -26 -2 -36 2 -93 8 -126 19 -101 7 -114
-85 -90 -139 36 -239 112 -299 228 -30 58 -35 64 -38 41 -6 -44 59 -166 118
-223 29 -28 61 -54 71 -57 27 -9 24 -25 -3 -19 -13 2 -39 7 -58 10 -124 23
-253 135 -314 272 -34 76 -10 55 65 -58 77 -115 104 -138 189 -155 l34 -8 -25
34 c-51 66 -104 195 -93 224 12 30 33 14 66 -51 34 -69 103 -148 122 -141 6 2
30 -9 54 -25 78 -54 151 -76 116 -35 -45 50 -46 60 -5 24 61 -51 70 -47 23 11
-22 26 -43 58 -47 72 -6 23 -5 22 13 -5 22 -35 84 -97 90 -91 2 3 -10 25 -28
50 -17 26 -38 62 -46 82 -15 35 -28 131 -16 119 3 -3 7 -22 9 -42 3 -40 49
-143 63 -143 7 0 -22 107 -37 134 -3 7 -1 6 8 -1 20 -19 25 -16 27 18 4 54 28
98 110 198 38 46 32 53 -13 16 -16 -13 -34 -28 -40 -32 -5 -5 -25 -21 -44 -36
-39 -32 -54 -23 -45 28 10 62 27 97 90 186 36 50 63 94 60 96 -2 3 -52 -40
-109 -96 -100 -96 -134 -117 -174 -109 -50 10 -38 114 25 207 59 88 59 88 26
67 -43 -28 -72 -56 -110 -108 -39 -53 -80 -73 -108 -52 -30 21 -17 101 32 197
23 44 40 82 38 84 -11 11 -77 -77 -120 -157 -26 -50 -53 -89 -59 -87 -11 3
-18 29 -32 121 -5 33 -9 37 -20 25 -7 -8 -18 -41 -24 -74 -30 -164 -40 -191
-60 -170 -12 12 -19 68 -26 214 -3 63 -10 122 -15 130 -5 9 -10 12 -10 6z
m849 -746 c34 -20 115 -110 139 -156 9 -16 8 -29 -3 -57 l-15 -36 -63 33 c-48
25 -66 41 -82 72 -19 39 -34 165 -20 165 4 0 24 -9 44 -21z m833 4 c6 -28 -10
-114 -28 -155 -13 -28 -28 -42 -68 -59 -48 -22 -86 -31 -86 -22 0 2 5 14 12
26 10 21 10 21 -7 7 -17 -14 -18 -14 -5 10 7 14 22 35 34 48 13 14 15 21 6 17
-8 -3 -24 -18 -35 -35 -11 -16 -21 -27 -24 -25 -13 14 104 155 154 186 37 23
43 23 47 2z"/>
<path d="M1481 1992 c19 -22 35 -39 37 -37 6 6 -31 52 -52 65 -10 6 -3 -6 15
-28z"/>
<path d="M1745 2188 c-2 -7 -6 -41 -9 -75 -5 -57 -4 -63 14 -63 14 0 18 5 14
18 -5 16 -5 16 6 0 6 -10 17 -18 25 -18 12 0 14 13 9 68 -4 37 -11 70 -18 74
-17 12 -36 9 -41 -4z"/>
<path d="M1861 2191 c-17 -11 -17 -121 1 -133 28 -18 54 -4 59 32 5 33 -28 41
-34 8 -2 -13 -4 0 -4 27 0 28 2 40 4 27 6 -33 39 -25 34 8 -5 36 -31 50 -60
31z"/>
<path d="M1614 2120 c1 -60 4 -70 18 -70 11 0 18 8 18 18 0 9 9 23 20 30 22
14 27 61 8 80 -7 7 -24 12 -38 12 -26 0 -26 -1 -26 -70z m43 8 c-3 -7 -5 -2
-5 12 0 14 2 19 5 13 2 -7 2 -19 0 -25z"/>
</g>
</svg>
