<svg width="978" height="216" viewBox="0 0 978 216" fill="none" xmlns="http://www.w3.org/2000/svg">
<g filter="url(#filter0_b_2564_1801)">
<path d="M77.8106 44.7H48.4105V81.9H77.2105V123.6H48.4105V171.3H78.1106V213H0.410547V2.99999H77.8106V44.7ZM177.2 2.99999L182.6 85.8H186.2L191.6 2.99999H241.4L226.7 107.7L242 213H191.6L185.9 128.1H182.6L176.9 213H126.8L141.8 107.7L127.1 2.99999H177.2ZM291.68 2.99999H345.38C380.48 2.99999 400.58 26.1 400.58 77.4V78C400.58 130.8 382.58 148.5 344.78 148.5H339.68V213H291.68V2.99999ZM339.68 44.7V106.8H344.78C351.08 106.8 352.88 103.8 352.88 95.7V56.4C352.88 47.7 351.08 44.7 344.78 44.7H339.68ZM450.938 2.99999H498.938V171.3H528.338V213H450.938V2.99999ZM576.79 55.2C576.79 18.6 596.89 -1.14441e-05 631.09 -1.14441e-05C665.59 -1.14441e-05 686.89 19.2 686.89 55.2V160.5C686.89 196.8 665.59 216 631.09 216C596.89 216 576.79 197.1 576.79 160.5V55.2ZM624.79 51.6V164.4C624.79 171.6 628.09 174.3 631.69 174.3C635.59 174.3 638.89 171.6 638.89 164.4V51.6C638.89 44.1 635.59 41.7 631.69 41.7C628.09 41.7 624.79 44.1 624.79 51.6ZM738.692 2.69999H792.392C827.192 2.69999 847.592 21.3 847.592 59.1V60.3C847.592 94.8 830.792 111.9 816.992 112.8V116.1C830.492 117 847.592 136.2 847.592 167.7V170.1C847.592 187.2 847.892 200.4 850.592 213H802.892C800.192 200.1 799.892 186 799.892 169.8V145.5C799.892 138 797.792 135.3 791.792 135.3H786.692V213H738.692V2.69999ZM786.692 44.4V93.6H791.792C797.792 93.6 799.892 90.6 799.892 83.1V54.6C799.892 47.4 797.792 44.4 791.792 44.4H786.692ZM977.4 44.7H948V81.9H976.8V123.6H948V171.3H977.7V213H900V2.99999H977.4V44.7Z" fill="white" fill-opacity="0.65"/>
</g>
<defs>
<filter id="filter0_b_2564_1801" x="-19.5894" y="-20" width="1017.29" height="256" filterUnits="userSpaceOnUse" color-interpolation-filters="sRGB">
<feFlood flood-opacity="0" result="BackgroundImageFix"/>
<feGaussianBlur in="BackgroundImageFix" stdDeviation="10"/>
<feComposite in2="SourceAlpha" operator="in" result="effect1_backgroundBlur_2564_1801"/>
<feBlend mode="normal" in="SourceGraphic" in2="effect1_backgroundBlur_2564_1801" result="shape"/>
</filter>
</defs>
</svg>
