<svg width="192" height="140" viewBox="0 0 192 140" fill="none" xmlns="http://www.w3.org/2000/svg">
<path d="M94.0659 10.7235C34.3056 10.7235 29.2847 73.5997 29.2847 73.5997C29.2847 73.5997 27.7907 73.9704 26.8544 74.4028C26.012 74.7919 24.7095 75.5502 24.7095 75.8944C24.7095 79.5086 24.6878 93.1624 24.6878 93.1624C24.6878 93.1624 24.7333 106.816 24.7863 108.595C24.8393 110.373 25.4748 110.201 26.2223 110.717C26.9698 111.234 42.81 114.331 42.81 114.331C42.81 114.331 60.9679 139 94.0659 139C127.164 139 145.168 114.331 145.168 114.331C145.168 114.331 161.027 111.348 161.947 110.775C162.867 110.201 163.269 109.455 163.384 108.595C163.384 103.374 163.384 93.3919 163.384 93.3919V75.8944C163.384 75.3207 162.251 74.8672 161.217 74.4028C160.183 73.9385 158.845 73.5997 158.845 73.5997C158.845 73.5997 153.826 10.7235 94.0659 10.7235Z" fill="#33455A"/>
<path d="M28.5952 81.6313H160.757V111.004H28.5952V81.6313Z" fill="#33455A"/>
<path d="M45.2591 34.5889H138.232V63.9617H45.2591V34.5889Z" fill="#33455A"/>
<path d="M104.817 86.2844C104.583 86.7079 104.085 86.9123 103.62 86.776L97.3013 84.9251C96.2399 84.6142 96.3424 83.0809 97.4358 82.9135L99.6524 82.5742C99.7815 82.5544 99.9057 82.5104 100.018 82.4445L107.002 78.3616C107.909 77.8313 108.938 78.8332 108.43 79.7519L104.817 86.2844Z" fill="#FFC52E"/>
<path d="M82.6164 45.0124C87.1546 45.1117 91.9445 44.1913 91.6645 40.0326C91.0832 31.4004 77.2905 35.4171 72.0545 35.402C66.8185 35.387 71.7481 23.8362 62.2333 23.7225C52.7185 23.6088 53.6809 38.8015 50.8714 38.7934C48.062 38.7853 51.8627 24.8147 42.1808 24.7868C32.4989 24.759 30.7294 38.8218 27.6977 38.8131C25.1537 38.8057 23.4136 26.2654 22.5548 23.6084C21.368 19.937 18.4909 13.4126 9.09865 13.3856C1.05915 13.3625 1.02405 25.5316 1.00015 33.8169C0.962846 46.7502 7.84884 59.2105 15.4372 63.6339C23.0255 68.0574 27.4689 69.1058 35.6498 69.1293C46.7209 69.1612 54.4644 68.3599 63.5131 61.6577C69.1599 57.4751 74.1461 48.9581 75.1304 47.9253C76.1148 46.8924 78.0783 44.913 82.6164 45.0124Z" fill="#D9900C"/>
<path d="M142.666 30.7126C138.036 30.7259 140.685 16.823 131.301 16.85C121.918 16.877 121.671 25.899 118.634 30.7817C114.107 36.1889 100.048 30.8351 100.069 37.9985C100.09 45.1618 106.312 46.3091 109.896 44.961C113.48 43.613 117.83 38.3789 129.965 49.7365C142.101 61.094 156.635 59.0978 165.566 57.8332C184.231 55.1903 190.914 34.8029 190.974 25.3091C191.033 15.8152 191.682 0.96879 180.789 1.00005C169.897 1.03131 169.621 25.3704 166.855 25.3784C164.09 25.3863 165.68 7.84535 153.838 7.98202C141.996 8.11868 147.295 30.6993 142.666 30.7126Z" fill="#D9900C"/>
<path d="M111.34 39.0357C111.34 29.9262 103.957 22.5415 94.8487 22.5415C85.7407 22.5415 78.3572 29.9262 78.3572 39.0357C78.3572 42.5574 85.1705 53.324 84.7001 53.7356C83.3003 54.9607 81.813 57.1322 81.813 59.8171C81.813 63.5587 86.1874 65.3297 86.1874 65.3297C86.1874 65.3297 85.1813 79.1113 87.981 81.1239C90.1944 82.715 93.2816 81.7722 96.5968 80.7597C97.4749 80.4915 98.3689 80.2185 99.267 79.9863C99.7831 79.8529 100.297 79.7257 100.804 79.6001C104.129 78.7765 107.171 78.0228 108.803 76.0487C110.684 73.7737 104.779 64.4984 104.779 64.4984C104.779 64.4984 107.494 62.0921 107.578 59.8171C107.578 56.7009 107.36 56.2295 105.172 54.0857C103.809 52.749 111.34 43.3335 111.34 39.0357Z" fill="#FFC52E"/>
<path d="M84.4057 62.2376C85.156 61.673 85.1377 58.6515 86.0654 59.2281C86.5984 59.5593 87.9342 61.9052 88.1032 63.9557C88.1805 64.8914 87.9543 65.6629 88.4011 65.6668C88.962 65.3739 88.6378 59.8625 87.3934 58.5343C86.1491 57.2062 84.2027 56.9548 83.639 57.5747C83.0754 58.1946 82.9612 58.563 83.0677 60.0222C83.3502 62.1415 83.9924 62.4498 84.4057 62.2376Z" fill="#33455A"/>
<path d="M105.21 60.3914C104.334 60.0512 103.531 57.1381 102.795 57.9442C102.372 58.4074 101.723 61.0271 102.118 63.0465C102.298 63.968 102.725 64.6493 102.296 64.7742C101.677 64.6441 100.491 59.2515 101.328 57.6362C102.165 56.0208 103.97 55.2518 104.681 55.6958C105.392 56.1398 105.602 56.4634 105.896 57.8967C106.2 60.0131 105.665 60.4837 105.21 60.3914Z" fill="#33455A"/>
<path d="M29.4911 102.055V90.3722H34.3248C35.2008 90.3722 35.9569 90.5433 36.593 90.8856C37.233 91.224 37.7262 91.6975 38.0729 92.3059C38.4195 92.9106 38.5928 93.6141 38.5928 94.4165C38.5928 95.2227 38.4157 95.9282 38.0614 96.5328C37.711 97.1337 37.2101 97.5995 36.5588 97.9304C35.9074 98.2612 35.1342 98.4266 34.2391 98.4266H31.2566V96.202H33.7134C34.14 96.202 34.4962 96.1278 34.7819 95.9795C35.0713 95.8312 35.2904 95.6239 35.4389 95.3577C35.5875 95.0877 35.6617 94.774 35.6617 94.4165C35.6617 94.0552 35.5875 93.7434 35.4389 93.481C35.2904 93.2148 35.0713 93.0095 34.7819 92.865C34.4924 92.7205 34.1362 92.6482 33.7134 92.6482H32.3193V102.055H29.4911Z" fill="white"/>
<path d="M39.9869 102.055V90.3722H48.1458V92.6653H42.8151V95.0611H47.7287V97.3599H42.8151V99.7614H48.1458V102.055H39.9869Z" fill="white"/>
<path d="M52.4481 102.055H49.4085L53.3566 90.3722H57.1218L61.0698 102.055H58.0302L55.282 93.3156H55.1906L52.4481 102.055ZM52.0425 97.4569H58.3959V99.6017H52.0425V97.4569Z" fill="white"/>
<path d="M72.4012 94.6048H69.5444C69.5064 94.3119 69.4283 94.0476 69.3102 93.8119C69.1921 93.5761 69.0359 93.3745 68.8417 93.2072C68.6474 93.0399 68.417 92.9125 68.1503 92.825C67.8875 92.7338 67.5961 92.6881 67.2762 92.6881C66.7086 92.6881 66.2192 92.8269 65.8078 93.1045C65.4002 93.3821 65.086 93.7833 64.8651 94.3081C64.6479 94.8329 64.5394 95.468 64.5394 96.2134C64.5394 96.9891 64.6498 97.6394 64.8708 98.1642C65.0955 98.6852 65.4097 99.0788 65.8135 99.345C66.2211 99.6074 66.7029 99.7386 67.259 99.7386C67.5714 99.7386 67.8551 99.6987 68.1103 99.6188C68.3694 99.539 68.596 99.423 68.7903 99.2709C68.9883 99.115 69.1502 98.9267 69.2759 98.7061C69.4054 98.4818 69.4949 98.2289 69.5444 97.9475L72.4012 97.9646C72.3517 98.4818 72.2012 98.9913 71.9498 99.4933C71.7023 99.9953 71.3614 100.454 70.9271 100.868C70.4929 101.279 69.9634 101.606 69.3388 101.849C68.7179 102.093 68.0056 102.214 67.2019 102.214C66.143 102.214 65.1945 101.982 64.3566 101.518C63.5224 101.051 62.8634 100.37 62.3797 99.4762C61.8959 98.5825 61.6541 97.4949 61.6541 96.2134C61.6541 94.928 61.8997 93.8385 62.3911 92.9448C62.8825 92.0511 63.5471 91.3723 64.3851 90.9084C65.2231 90.4444 66.162 90.2125 67.2019 90.2125C67.9104 90.2125 68.5655 90.3113 69.1674 90.5091C69.7692 90.703 70.2986 90.9883 70.7557 91.3647C71.2128 91.7374 71.5842 92.1957 71.8699 92.7395C72.1555 93.2833 72.3327 93.905 72.4012 94.6048Z" fill="white"/>
<path d="M74.0196 102.055V90.3722H82.1785V92.6653H76.8478V95.0611H81.7614V97.3599H76.8478V99.7614H82.1785V102.055H74.0196Z" fill="white"/>
<path d="M87.4064 102.055V90.3722H90.2346V95.3121H90.3888L94.2569 90.3722H97.5879L93.4399 95.5859L97.6622 102.055H94.2798L91.3659 97.4626L90.2346 98.8887V102.055H87.4064Z" fill="white"/>
<path d="M98.7035 102.055V90.3722H106.862V92.6653H101.532V95.0611H106.445V97.3599H101.532V99.7614H106.862V102.055H98.7035Z" fill="white"/>
<path d="M108.634 102.055V90.3722H116.793V92.6653H111.462V95.0611H116.375V97.3599H111.462V99.7614H116.793V102.055H108.634Z" fill="white"/>
<path d="M118.564 102.055V90.3722H123.397C124.273 90.3722 125.03 90.5433 125.666 90.8856C126.306 91.224 126.799 91.6975 127.145 92.3059C127.492 92.9106 127.665 93.6141 127.665 94.4165C127.665 95.2227 127.488 95.9282 127.134 96.5328C126.784 97.1337 126.283 97.5995 125.631 97.9304C124.98 98.2612 124.207 98.4266 123.312 98.4266H120.329V96.202H122.786C123.213 96.202 123.569 96.1278 123.854 95.9795C124.144 95.8312 124.363 95.6239 124.512 95.3577C124.66 95.0877 124.734 94.774 124.734 94.4165C124.734 94.0552 124.66 93.7434 124.512 93.481C124.363 93.2148 124.144 93.0095 123.854 92.865C123.565 92.7205 123.209 92.6482 122.786 92.6482H121.392V102.055H118.564Z" fill="white"/>
<path d="M129.059 102.055V90.3722H137.218V92.6653H131.888V95.0611H136.801V97.3599H131.888V99.7614H137.218V102.055H129.059Z" fill="white"/>
<path d="M138.99 102.055V90.3722H143.823C144.699 90.3722 145.455 90.53 146.092 90.8456C146.731 91.1575 147.225 91.6062 147.571 92.1919C147.918 92.7737 148.091 93.4639 148.091 94.2625C148.091 95.0725 147.914 95.7608 147.56 96.3275C147.206 96.8903 146.703 97.32 146.052 97.6166C145.4 97.9094 144.629 98.0559 143.738 98.0559H140.681V95.8312H143.212C143.639 95.8312 143.995 95.776 144.28 95.6658C144.57 95.5517 144.789 95.3805 144.937 95.1524C145.086 94.9204 145.16 94.6238 145.16 94.2625C145.16 93.9012 145.086 93.6027 144.937 93.3669C144.789 93.1274 144.57 92.9486 144.28 92.8307C143.991 92.709 143.635 92.6482 143.212 92.6482H141.818V102.055H138.99ZM145.577 96.7153L148.491 102.055H145.406L142.549 96.7153H145.577Z" fill="white"/>
<path d="M155.967 93.8746C155.929 93.4563 155.76 93.1311 155.459 92.8992C155.162 92.6634 154.737 92.5455 154.185 92.5455C153.819 92.5455 153.514 92.5931 153.271 92.6881C153.027 92.7832 152.844 92.9144 152.722 93.0817C152.6 93.2452 152.537 93.4335 152.534 93.6464C152.526 93.8214 152.56 93.9754 152.636 94.1085C152.716 94.2416 152.831 94.3595 152.979 94.4622C153.132 94.561 153.314 94.6485 153.528 94.7246C153.741 94.8006 153.981 94.8672 154.248 94.9242L155.253 95.1524C155.832 95.2779 156.343 95.4452 156.784 95.6544C157.23 95.8635 157.603 96.1126 157.904 96.4016C158.209 96.6906 158.439 97.0234 158.596 97.3999C158.752 97.7763 158.832 98.1985 158.836 98.6662C158.832 99.404 158.645 100.037 158.276 100.566C157.906 101.094 157.375 101.499 156.682 101.781C155.992 102.062 155.16 102.203 154.185 102.203C153.206 102.203 152.353 102.056 151.625 101.764C150.898 101.471 150.332 101.026 149.928 100.429C149.524 99.8318 149.317 99.0769 149.305 98.1642H152.014C152.036 98.5407 152.137 98.8544 152.316 99.1054C152.495 99.3564 152.741 99.5466 153.053 99.6759C153.37 99.8052 153.735 99.8698 154.15 99.8698C154.531 99.8698 154.855 99.8185 155.122 99.7158C155.392 99.6131 155.6 99.4705 155.745 99.288C155.889 99.1054 155.964 98.8963 155.967 98.6605C155.964 98.4399 155.895 98.2517 155.762 98.0958C155.628 97.9361 155.423 97.7992 155.145 97.6851C154.87 97.5672 154.52 97.4588 154.093 97.3599L152.871 97.0747C151.857 96.8427 151.059 96.4682 150.477 95.951C149.894 95.43 149.604 94.7264 149.608 93.8404C149.604 93.1178 149.799 92.4847 150.191 91.9409C150.583 91.3971 151.126 90.973 151.819 90.6688C152.513 90.3646 153.303 90.2125 154.19 90.2125C155.097 90.2125 155.884 90.3665 156.55 90.6745C157.221 90.9787 157.74 91.4066 158.11 91.958C158.479 92.5094 158.668 93.1483 158.676 93.8746H155.967Z" fill="white"/>
<path d="M61.7591 107.708C61.8074 107.907 61.8453 108.066 61.8729 108.183L62.6486 111.797V111.807C62.3314 111.849 62.1832 111.849 62.2039 111.807H62.1935C62.1521 111.697 62.1108 111.566 62.0694 111.415C62.0349 111.263 61.997 111.108 61.9556 110.95C61.9211 110.792 61.8453 110.496 61.7281 110.062L58.9871 110.031C58.9113 110.451 58.8561 110.744 58.8217 110.909C58.7941 111.067 58.7424 111.356 58.6665 111.776C58.6596 111.776 58.6424 111.78 58.6148 111.787C58.5941 111.787 58.4459 111.787 58.17 111.787C58.1838 111.738 58.208 111.604 58.2424 111.384C58.2769 111.164 58.3252 110.878 58.3872 110.527C58.4493 110.176 58.5217 109.773 58.6045 109.319C58.6941 108.857 58.7975 108.369 58.9147 107.852C59.032 107.336 59.1595 106.799 59.2974 106.241C59.4353 105.684 59.6181 105.13 59.8456 104.579C59.8939 104.572 59.9456 104.568 60.0008 104.568C60.0559 104.568 60.1111 104.568 60.1663 104.568C60.2283 104.568 60.3283 104.568 60.4662 104.568C60.611 104.562 60.7972 104.548 61.0247 104.527C61.0454 104.617 61.0765 104.754 61.1178 104.94C61.1661 105.119 61.2144 105.326 61.2626 105.56C61.3178 105.787 61.373 106.031 61.4281 106.293C61.4902 106.555 61.5488 106.806 61.604 107.047C61.6591 107.288 61.7108 107.508 61.7591 107.708ZM59.7525 109.628C60.1525 109.635 60.8075 109.628 61.7177 109.608C61.0902 106.537 60.7455 105.002 60.6834 105.002C60.6283 105.002 60.5352 105.002 60.4042 105.002C60.28 105.002 60.1835 105.006 60.1145 105.012C60.0525 105.012 59.9387 105.37 59.7732 106.086C59.6146 106.796 59.3698 107.969 59.0389 109.608C59.1216 109.615 59.3595 109.621 59.7525 109.628Z" fill="white"/>
<path d="M67.3195 104.899C67.5264 105.057 67.6919 105.236 67.816 105.436C67.9608 105.67 68.0849 105.914 68.1883 106.169C68.2918 106.417 68.3745 106.678 68.4366 106.954C68.471 107.064 68.4917 107.174 68.4986 107.284C68.5124 107.388 68.5228 107.494 68.5296 107.604C68.5159 107.928 68.5021 108.255 68.4883 108.585C68.4814 108.909 68.4469 109.229 68.3848 109.546C68.3848 109.553 68.3814 109.556 68.3745 109.556C68.3745 109.556 68.34 109.659 68.2711 109.866C68.2021 110.072 68.047 110.358 67.8056 110.723C67.5712 111.088 67.323 111.432 67.0609 111.756C66.6058 111.769 66.1473 111.78 65.6853 111.787C65.2233 111.787 64.7751 111.787 64.3407 111.787C64.3407 111.787 64.3372 111.79 64.3303 111.797C64.2545 111.253 64.2062 110.692 64.1855 110.114C64.1649 109.529 64.1545 108.937 64.1545 108.338C64.1545 107.739 64.158 107.136 64.1649 106.53C64.1786 105.918 64.1786 105.312 64.1649 104.713C64.1717 104.706 64.1752 104.699 64.1752 104.692C64.1821 104.685 64.189 104.679 64.1959 104.672C64.389 104.624 64.5889 104.593 64.7958 104.579C65.0095 104.558 65.2233 104.551 65.4371 104.558C65.6508 104.558 65.8611 104.562 66.068 104.568C66.2817 104.575 66.4886 104.575 66.6886 104.568C66.9092 104.624 67.1195 104.734 67.3195 104.899ZM67.454 110.558C67.6815 110.282 67.8884 109.68 68.0746 108.751C68.1228 108.248 68.1194 107.749 68.0642 107.253C67.8918 106.462 67.6505 105.887 67.3402 105.529C67.0368 105.171 66.7817 104.988 66.5748 104.981C66.3679 104.975 66.1956 104.971 66.0576 104.971C65.9197 104.964 65.4543 104.981 64.6613 105.023H64.5786C64.6268 105.236 64.651 105.749 64.651 106.561C64.651 107.374 64.6372 107.897 64.6096 108.131C64.5889 108.358 64.5993 108.892 64.6406 109.732C64.682 110.572 64.7096 111.095 64.7234 111.301C64.7992 111.336 65.0716 111.346 65.5405 111.332C66.0094 111.318 66.3059 111.305 66.43 111.291H66.7506C66.992 111.071 67.2264 110.826 67.454 110.558Z" fill="white"/>
<path d="M74.0387 104.713C74.156 104.713 74.2732 104.723 74.3904 104.744C74.0387 106.21 73.7112 107.477 73.4078 108.544C73.1044 109.611 72.7665 110.695 72.3942 111.797C72.339 111.797 72.2425 111.8 72.1046 111.807C71.9736 111.821 71.8529 111.811 71.7426 111.776C71.2875 110.379 70.9496 109.226 70.7289 108.317C70.5083 107.401 70.2497 106.221 69.9532 104.775V104.765C69.9946 104.716 70.0808 104.689 70.2118 104.682C70.3497 104.668 70.4462 104.668 70.5014 104.682C70.529 104.82 70.6014 105.25 70.7186 105.973C70.8358 106.689 71.0151 107.498 71.2564 108.4C71.5047 109.294 71.7874 110.214 72.1046 111.157C72.5597 109.635 73.1458 107.491 73.8629 104.723C73.8629 104.71 73.9215 104.706 74.0387 104.713Z" fill="white"/>
<path d="M78.8424 111.374C79.2837 111.394 79.7388 111.398 80.2077 111.384V111.405L80.187 111.776C79.4837 111.769 78.7666 111.78 78.0356 111.807C77.3116 111.828 76.6152 111.811 75.9463 111.756C75.9463 111.157 75.9394 110.565 75.9256 109.979C75.9118 109.387 75.9015 108.799 75.8946 108.214C75.8877 107.628 75.8877 107.043 75.8946 106.458C75.9015 105.873 75.9222 105.284 75.9567 104.692C76.2256 104.679 76.5152 104.668 76.8255 104.661C77.1427 104.648 77.4599 104.637 77.7771 104.63C78.0943 104.624 78.4011 104.617 78.6976 104.61C78.9941 104.603 79.2561 104.599 79.4837 104.599C79.7112 104.599 79.894 104.603 80.0319 104.61C80.1698 104.617 80.2387 104.624 80.2387 104.63L80.2284 105.023C80.0077 105.009 79.794 105.009 79.5871 105.023C79.3871 105.03 79.1734 105.033 78.9458 105.033C78.7183 105.026 78.4907 105.023 78.2632 105.023C78.0356 105.023 77.4357 105.037 76.4635 105.064H76.4324L76.4221 105.074C76.429 105.274 76.4118 105.766 76.3704 106.551C76.329 107.336 76.3325 107.821 76.3807 108.007L76.3911 108.017C77.3427 108.024 77.9253 108.028 78.1391 108.028C78.3528 108.028 78.5666 108.031 78.7803 108.038V108.048C78.7872 108.179 78.7907 108.279 78.7907 108.348C78.7907 108.41 78.7941 108.431 78.801 108.41C78.5183 108.424 78.3563 108.437 78.3149 108.451C78.2735 108.458 78.1908 108.458 78.0667 108.451C77.9494 108.444 77.6564 108.448 77.1875 108.461C76.7186 108.468 76.4669 108.486 76.4324 108.513C76.398 108.713 76.3842 109.029 76.3911 109.463C76.4049 109.89 76.398 110.513 76.3704 111.332L76.3807 111.343C77.5805 111.336 78.4011 111.346 78.8424 111.374Z" fill="white"/>
<path d="M86.3251 111.807C86.3113 111.814 86.1562 111.8 85.8596 111.766C85.6321 111.256 85.408 110.84 85.1874 110.516C84.9736 110.186 84.1875 108.782 82.8291 106.303C82.7119 106.062 82.6395 105.911 82.6119 105.849C82.5912 105.78 82.5705 105.808 82.5499 105.932C82.5705 106.152 82.5774 106.389 82.5705 106.644C82.5636 106.899 82.574 107.608 82.6016 108.771C82.6292 109.935 82.6429 110.661 82.6429 110.95C82.6429 111.108 82.6429 111.263 82.6429 111.415C82.6429 111.559 82.6464 111.69 82.6533 111.807C82.5774 111.828 82.4947 111.831 82.405 111.818C82.3154 111.804 82.1913 111.797 82.0327 111.797V111.074C82.0327 110.42 82.0258 109.797 82.012 109.205C82.0051 108.613 82.0017 107.993 82.0017 107.346C82.0017 106.871 82.0086 106.403 82.0223 105.942C82.0361 105.474 82.0603 105.019 82.0947 104.579C82.1637 104.565 82.2637 104.568 82.3947 104.589C82.5257 104.61 82.5912 104.627 82.5912 104.641C82.6395 104.765 82.6843 104.868 82.7257 104.951C82.7671 105.033 82.8326 105.16 82.9222 105.333C83.0187 105.498 83.098 105.653 83.1601 105.797C83.1739 105.832 83.56 106.513 84.3185 107.842C85.077 109.171 85.5045 109.931 85.6011 110.124C85.7045 110.317 85.7838 110.451 85.839 110.527C85.839 110.189 85.839 109.962 85.839 109.845C85.839 109.487 85.8321 109.191 85.8183 108.957C85.8114 108.716 85.8079 108.472 85.8079 108.224C85.7735 106.207 85.7493 105.126 85.7355 104.981C85.7217 104.83 85.7149 104.668 85.7149 104.496C85.9148 104.482 86.1148 104.496 86.3148 104.537V107.863C86.3216 108.152 86.3251 108.444 86.3251 108.74C86.3251 109.036 86.3251 109.332 86.3251 109.628C86.3251 109.828 86.3216 110.021 86.3148 110.207C86.3148 110.393 86.3148 110.582 86.3148 110.775C86.2803 111.009 86.2837 111.284 86.3251 111.601V111.807Z" fill="white"/>
<path d="M90.1629 104.527C90.9145 104.52 91.6454 104.555 92.3556 104.63C92.3625 104.796 92.3522 104.968 92.3246 105.147C92.1936 105.119 91.9971 105.109 91.735 105.116C91.473 105.123 91.0524 105.126 90.4732 105.126C90.487 105.195 90.4904 105.267 90.4835 105.343C90.4835 105.412 90.4801 105.704 90.4732 106.221C90.4732 106.737 90.4732 107.123 90.4732 107.377C90.4801 107.625 90.487 107.949 90.4939 108.348C90.5008 108.74 90.5077 109.215 90.5145 109.773C90.5214 110.324 90.5318 110.974 90.5456 111.725V111.745C90.4077 111.766 90.3008 111.776 90.2249 111.776C90.1491 111.769 90.0353 111.783 89.8836 111.818C89.8767 111.79 89.8767 111.666 89.8836 111.446C89.8905 111.226 89.894 110.899 89.894 110.465C89.9009 110.024 89.8974 109.463 89.8836 108.782C89.8767 108.1 89.856 106.916 89.8216 105.229V105.157C89.7319 105.157 89.5906 105.154 89.3975 105.147C89.2044 105.133 88.9941 105.126 88.7666 105.126C88.539 105.119 88.3735 105.116 88.2701 105.116C88.1667 105.116 88.0943 105.109 88.0529 105.095C88.0391 105.068 88.0219 105.012 88.0012 104.93C87.9874 104.847 87.9874 104.723 88.0012 104.558C88.0012 104.551 87.9977 104.548 87.9908 104.548C87.9908 104.548 87.9908 104.544 87.9908 104.537C88.6942 104.531 89.4182 104.527 90.1629 104.527Z" fill="white"/>
<path d="M97.955 104.878C98.2101 104.844 98.3791 104.851 98.4618 104.899C98.5032 105.78 98.517 106.672 98.5032 107.573C98.4894 108.468 98.4342 109.36 98.3377 110.248C98.2825 110.702 98.1101 111.088 97.8205 111.405C97.5309 111.721 97.1379 111.904 96.6414 111.952C96.3518 111.979 96.0518 111.966 95.7415 111.91C95.4313 111.862 95.1485 111.773 94.8934 111.642C94.6452 111.504 94.4487 111.287 94.3039 110.991C94.1591 110.695 94.0798 110.389 94.066 110.072C94.0177 109.308 94.0039 108.465 94.0246 107.542C94.0453 106.62 94.0487 105.704 94.0349 104.796L94.0246 104.785H94.0349C94.1384 104.785 94.3211 104.785 94.5831 104.785C94.5211 107.518 94.5314 109.263 94.6142 110.021C94.7038 110.778 95.0658 111.239 95.7002 111.405C96.3346 111.563 96.8448 111.47 97.231 111.126C97.624 110.781 97.8447 110.255 97.8929 109.546C97.9481 108.837 97.9653 108.083 97.9446 107.284C97.9308 106.479 97.9343 105.677 97.955 104.878Z" fill="white"/>
<path d="M103.27 109.907C103.574 110.141 104.253 110.764 105.308 111.776H105.318C104.973 111.776 104.756 111.783 104.666 111.797L102.95 110.238L100.974 108.699C100.974 108.912 100.971 109.215 100.964 109.608C100.957 109.993 100.957 110.31 100.964 110.558C100.977 110.799 100.991 111.029 101.005 111.25C101.019 111.47 101.029 111.645 101.036 111.776C100.843 111.818 100.695 111.831 100.591 111.818C100.488 111.804 100.419 111.8 100.384 111.807C100.398 111.807 100.409 111.714 100.415 111.528C100.422 111.336 100.426 111.084 100.426 110.775C100.426 110.465 100.426 110.11 100.426 109.711C100.426 109.305 100.422 108.888 100.415 108.461C100.415 108.028 100.409 107.601 100.395 107.181C100.388 106.754 100.381 106.365 100.374 106.014C100.367 105.656 100.357 105.353 100.343 105.105C100.336 104.851 100.326 104.679 100.312 104.589C100.698 104.534 101.122 104.482 101.584 104.434C102.046 104.386 102.529 104.389 103.032 104.445C103.439 104.465 103.805 104.582 104.129 104.796C104.453 105.009 104.704 105.274 104.884 105.591C105.063 105.907 105.156 106.259 105.163 106.644C105.177 107.023 105.077 107.391 104.863 107.749C104.732 107.997 104.556 108.203 104.335 108.369C104.122 108.534 103.246 108.606 101.708 108.585C102.453 109.226 102.974 109.666 103.27 109.907ZM102.825 104.816C102.377 104.775 101.701 104.799 100.798 104.889C100.805 104.978 100.819 105.278 100.84 105.787C100.867 106.296 100.881 106.61 100.881 106.727C100.881 106.844 100.881 107.071 100.881 107.408C100.888 107.739 100.898 107.942 100.912 108.017H100.922C102.591 108.155 103.639 108.131 104.067 107.945C104.425 107.801 104.642 107.463 104.718 106.933C104.801 106.403 104.742 105.993 104.542 105.704C104.349 105.415 104.125 105.205 103.87 105.074C103.622 104.944 103.274 104.858 102.825 104.816Z" fill="white"/>
<path d="M109.823 111.374C110.265 111.394 110.72 111.398 111.189 111.384V111.405L111.168 111.776C110.465 111.769 109.747 111.78 109.017 111.807C108.293 111.828 107.596 111.811 106.927 111.756C106.927 111.157 106.92 110.565 106.907 109.979C106.893 109.387 106.882 108.799 106.876 108.214C106.869 107.628 106.869 107.043 106.876 106.458C106.882 105.873 106.903 105.284 106.938 104.692C107.207 104.679 107.496 104.668 107.806 104.661C108.124 104.648 108.441 104.637 108.758 104.63C109.075 104.624 109.382 104.617 109.679 104.61C109.975 104.603 110.237 104.599 110.465 104.599C110.692 104.599 110.875 104.603 111.013 104.61C111.151 104.617 111.22 104.624 111.22 104.63L111.209 105.023C110.989 105.009 110.775 105.009 110.568 105.023C110.368 105.03 110.154 105.033 109.927 105.033C109.699 105.026 109.472 105.023 109.244 105.023C109.017 105.023 108.417 105.037 107.444 105.064H107.413L107.403 105.074C107.41 105.274 107.393 105.766 107.351 106.551C107.31 107.336 107.313 107.821 107.362 108.007L107.372 108.017C108.324 108.024 108.906 108.028 109.12 108.028C109.334 108.028 109.548 108.031 109.761 108.038V108.048C109.768 108.179 109.772 108.279 109.772 108.348C109.772 108.41 109.775 108.431 109.782 108.41C109.499 108.424 109.337 108.437 109.296 108.451C109.254 108.458 109.172 108.458 109.048 108.451C108.93 108.444 108.637 108.448 108.168 108.461C107.7 108.468 107.448 108.486 107.413 108.513C107.379 108.713 107.365 109.029 107.372 109.463C107.386 109.89 107.379 110.513 107.351 111.332L107.362 111.343C108.561 111.336 109.382 111.346 109.823 111.374Z" fill="white"/>
<path d="M116.574 108.09C116.567 108.819 116.567 109.381 116.574 109.773C116.587 110.516 116.798 111.005 117.205 111.239C117.611 111.473 118.067 111.566 118.57 111.518C119.053 111.456 119.459 111.215 119.79 110.795C120.121 110.375 120.239 109.739 120.142 108.885C120.301 108.878 120.452 108.864 120.597 108.844C120.666 109.25 120.673 109.632 120.618 109.99C120.563 110.341 120.442 110.658 120.256 110.94C120.07 111.222 119.825 111.456 119.521 111.642C119.225 111.821 118.887 111.914 118.508 111.921C118.26 111.955 118.004 111.955 117.742 111.921C117.48 111.893 117.236 111.828 117.008 111.725C116.781 111.614 116.587 111.463 116.429 111.27C116.277 111.078 116.188 110.837 116.16 110.547C116.146 110.3 116.136 110.041 116.129 109.773C116.122 109.504 116.115 109.205 116.108 108.875C116.108 108.537 116.108 108.159 116.108 107.739C116.115 107.312 116.122 106.82 116.129 106.262C116.163 105.904 116.201 105.673 116.243 105.57C116.305 105.391 116.381 105.226 116.47 105.074C116.567 104.923 116.681 104.789 116.812 104.672C116.887 104.617 116.97 104.572 117.06 104.537C117.149 104.496 117.243 104.462 117.339 104.434C117.656 104.331 117.97 104.29 118.28 104.31C118.591 104.331 118.88 104.403 119.149 104.527C119.425 104.644 119.673 104.803 119.894 105.002C120.114 105.202 120.29 105.432 120.421 105.694C120.552 105.949 120.632 106.228 120.659 106.53C120.687 106.833 120.687 107.147 120.659 107.47C120.308 107.518 120.152 107.525 120.194 107.491C120.208 107.388 120.204 107.174 120.183 106.851C120.163 106.52 120.132 106.269 120.09 106.097C120.056 105.918 119.908 105.66 119.646 105.322C119.384 104.985 118.828 104.806 117.98 104.785C116.96 104.765 116.491 105.866 116.574 108.09Z" fill="white"/>
<path d="M126.072 105.064C126.272 105.243 126.413 105.453 126.496 105.694C126.544 105.797 126.578 105.904 126.599 106.014C126.627 106.117 126.647 106.224 126.661 106.334C126.675 106.506 126.682 106.678 126.682 106.851C126.689 107.016 126.689 107.184 126.682 107.357C126.661 107.721 126.654 108.076 126.661 108.42C126.668 108.764 126.658 109.115 126.63 109.473L126.599 109.814C126.585 110.055 126.547 110.3 126.485 110.547C126.423 110.788 126.33 111.009 126.206 111.208C126.089 111.374 125.934 111.508 125.741 111.611C125.554 111.707 125.354 111.783 125.141 111.838C124.948 111.893 124.751 111.928 124.551 111.941C124.358 111.955 124.162 111.955 123.962 111.941C123.817 111.928 123.675 111.907 123.538 111.88C123.407 111.859 123.279 111.821 123.155 111.766C123.038 111.711 122.931 111.642 122.834 111.559C122.738 111.47 122.658 111.356 122.596 111.219C122.5 111.047 122.434 110.864 122.4 110.671C122.372 110.472 122.355 110.272 122.348 110.072C122.327 109.535 122.303 108.998 122.276 108.461C122.255 107.918 122.262 107.374 122.296 106.83C122.303 106.52 122.341 106.21 122.41 105.901C122.486 105.584 122.631 105.305 122.845 105.064C122.913 104.995 122.993 104.933 123.082 104.878C123.31 104.768 123.555 104.689 123.817 104.641C124.086 104.586 124.351 104.565 124.613 104.579C124.882 104.593 125.141 104.641 125.389 104.723C125.644 104.799 125.872 104.913 126.072 105.064ZM126.196 108.709V107.274L126.134 106.572C126.134 106.565 126.127 106.496 126.113 106.365C126.106 106.228 126.099 106.1 126.092 105.983C126.078 105.79 126.003 105.615 125.865 105.457C125.734 105.298 125.589 105.181 125.43 105.105C125.292 105.05 125.044 105.006 124.686 104.971C124.327 104.93 123.896 105.023 123.393 105.25C123.151 105.436 122.989 105.673 122.907 105.963C122.851 106.224 122.803 106.499 122.762 106.789C122.727 107.078 122.717 107.68 122.731 108.596C122.751 109.491 122.786 110.066 122.834 110.32C122.882 110.568 122.941 110.806 123.01 111.033C123.079 111.17 123.22 111.308 123.434 111.446C123.648 111.577 123.993 111.621 124.468 111.58C124.951 111.539 125.268 111.473 125.42 111.384C125.572 111.287 125.699 111.181 125.803 111.064C125.865 110.981 125.91 110.916 125.937 110.868C125.965 110.812 125.992 110.757 126.02 110.702C126.054 110.647 126.078 110.575 126.092 110.485C126.106 110.389 126.12 110.269 126.134 110.124C126.141 109.986 126.151 109.721 126.165 109.329C126.185 108.93 126.196 108.723 126.196 108.709Z" fill="white"/>
<path d="M129.344 111.807H129.323L128.91 111.797H128.879C128.865 111.721 128.855 111.625 128.848 111.508C128.848 111.391 128.848 111.274 128.848 111.157C128.855 111.04 128.858 110.929 128.858 110.826C128.865 110.723 128.868 110.647 128.868 110.599C128.937 110.572 129.01 110.551 129.086 110.537C129.161 110.523 129.22 110.523 129.261 110.537C129.31 110.544 129.358 110.558 129.406 110.578C129.406 110.585 129.403 110.644 129.396 110.754C129.389 110.857 129.382 110.978 129.375 111.115C129.368 111.253 129.361 111.387 129.354 111.518C129.348 111.649 129.344 111.738 129.344 111.787V111.807Z" fill="white"/>
<path d="M72.6427 16.3457H70.9204L70.2263 18.4368V19.8308L69.7379 21.4572L70.2263 23.6774L70.9204 26.1041L72.6427 27.9628L75.0849 29.2536L77.0386 30.5444H78.0925L79.4807 32.8679L80.3033 32.1708L82.1542 30.5444L83.4138 29.2536L82.1542 27.9628V24.3744L81.2287 22.6189L79.4807 21.0958L77.0386 19.8308L75.0849 18.4368L73.9281 17.146L72.6427 16.3457Z" fill="#FFC52E"/>
<path d="M115.331 15.313H117.053L117.747 17.4041V18.7982L118.236 20.4246L117.747 22.6448L117.053 25.0715L115.331 26.9302L112.889 28.221L110.935 29.5118H109.881L108.493 31.8352L107.67 31.1382L105.819 29.5118L104.56 28.221L105.819 26.9302V23.3418L106.745 21.5863L108.493 20.0632L110.935 18.7982L112.889 17.4041L114.046 16.1133L115.331 15.313Z" fill="#FFC52E"/>
<path d="M76.8828 35.069C78.1458 32.7337 80.4828 31.1721 83.1268 30.8967L94.1518 29.7484C94.7533 29.6858 95.3599 29.691 95.9603 29.7641L105.884 30.9723C107.814 31.2073 109.594 32.1326 110.894 33.577L112.701 35.5846C114.027 37.0587 114.761 38.9706 114.761 40.9524V47.4818C114.761 48.7018 114.35 49.8862 113.594 50.8444C112.562 52.1518 110.987 52.9148 109.319 52.9148H106.863C105.379 52.9148 103.93 52.4581 102.714 51.607C101.499 50.7559 100.05 50.2992 98.5655 50.2992H90.5292C89.1506 50.2992 87.7951 50.6529 86.5929 51.3264L85.591 51.8876C84.3888 52.5611 83.0333 52.9148 81.6547 52.9148H79.6655C78.509 52.9148 77.3903 52.5042 76.5092 51.7564C75.4201 50.832 74.7924 49.4767 74.7924 48.0495V41.1275C74.7924 40.0903 74.9936 39.063 75.3849 38.1022L75.8196 37.0349L76.8828 35.069Z" fill="url(#paint0_linear_79_1261)"/>
<path d="M104.071 43.4163C104.262 43.1044 104.725 43.1306 104.879 43.4622L109.002 52.2909C109.188 52.6884 108.763 53.0945 108.373 52.892L101.139 49.1316C100.903 49.0087 100.82 48.7115 100.959 48.4847L104.071 43.4163Z" fill="#33455A" fill-opacity="0.9"/>
<path d="M98.5614 39.6422C98.7749 39.4139 99.1496 39.4606 99.3003 39.7344L105.732 51.4183C105.923 51.7652 105.614 52.1746 105.228 52.0869L97.4381 50.3194C97.4047 50.3118 97.3705 50.308 97.3362 50.308H89.6473C89.2454 50.308 89.037 49.8292 89.3113 49.5358L98.5614 39.6422Z" fill="#33455A" fill-opacity="0.9"/>
<path d="M91.2913 44.1677C91.4483 44.008 91.6978 43.9847 91.8818 44.1125L98.4434 48.6702C98.8129 48.9268 98.631 49.5059 98.1809 49.5059H87.1357C86.7281 49.5059 86.5221 49.0156 86.8077 48.7253L91.2913 44.1677Z" fill="#33455A" fill-opacity="0.9"/>
<path d="M91.1751 44.1987L89.6551 45.6959H89.9808L90.198 45.4821L90.5237 45.2682L90.7408 45.3751L90.9579 45.1612L91.1751 45.0543L91.2836 45.2682L91.5008 45.589L91.7179 45.3751V45.0543L91.8265 44.8404L92.0436 45.0543L92.2607 45.3751L92.695 45.1612L93.1293 45.0543L93.6721 45.2682L93.2378 44.9473L92.695 44.5195L92.2607 44.1987L92.0436 44.0918H91.5008L91.1751 44.1987Z" fill="white"/>
<path d="M103.736 43.9915L102.71 45.5957L103.012 45.4954L103.112 45.2949L103.313 45.188L103.41 44.9741V44.7602L103.628 44.6532L103.736 44.8671L103.953 45.188L104.17 44.9741V44.6532L104.279 44.4393L104.496 44.6532L104.713 44.9741L105.148 44.7602L105.321 45.081L105.723 45.188L105.522 44.8671L105.221 44.0918L105.02 43.7977L104.713 43.5905H104.17L103.815 43.7977L103.736 43.9915Z" fill="white"/>
<path d="M98.4056 39.7872L96.7852 41.485L97.2114 41.2845L97.4285 41.0706L97.7542 40.8567L97.9713 40.9636L98.0907 40.8567L98.2916 40.7497V41.0706L98.7313 41.485L98.9484 40.9636V40.6428L98.9946 40.7831L99.1954 40.9837L99.4912 41.6855L99.6975 40.8567L99.9255 41.2845L100.36 41.6855L99.9255 40.8567L99.5971 40.1816L99.3963 39.9811L99.1954 39.7872L98.9484 39.6803H98.7313L98.4056 39.7872Z" fill="white"/>
<path d="M94.0659 10.7235C34.3056 10.7235 29.2847 73.5997 29.2847 73.5997C29.2847 73.5997 27.7907 73.9704 26.8544 74.4028C26.012 74.7919 24.7095 75.5502 24.7095 75.8944C24.7095 79.5086 24.6878 93.1624 24.6878 93.1624C24.6878 93.1624 24.7333 106.816 24.7863 108.595C24.8393 110.373 25.4748 110.201 26.2223 110.717C26.9698 111.234 42.81 114.331 42.81 114.331C42.81 114.331 60.9679 139 94.0659 139C127.164 139 145.168 114.331 145.168 114.331C145.168 114.331 161.027 111.348 161.947 110.775C162.867 110.201 163.269 109.455 163.384 108.595C163.384 103.374 163.384 93.3919 163.384 93.3919V75.8944C163.384 75.3207 162.251 74.8672 161.217 74.4028C160.183 73.9385 158.845 73.5997 158.845 73.5997C158.845 73.5997 153.826 10.7235 94.0659 10.7235Z" stroke="#62CCB4" stroke-width="0.08"/>
<path d="M153.173 74.8618C153.173 107.496 126.674 133.952 93.9868 133.952C61.2994 133.952 34.8011 107.496 34.8011 74.8618C34.8011 42.2274 61.2994 15.772 93.9868 15.772C126.674 15.772 153.173 42.2274 153.173 74.8618Z" stroke="#62CCB4" stroke-width="0.08"/>
<path d="M28.5952 81.6313H160.757V111.004H28.5952V81.6313Z" stroke="#62CCB4" stroke-width="0.08"/>
<path d="M45.2591 34.5889H138.232V63.9617H45.2591V34.5889Z" stroke="#62CCB4" stroke-width="0.08"/>
<path d="M104.817 86.2844C104.583 86.7079 104.085 86.9123 103.62 86.776L97.3013 84.9251C96.2399 84.6142 96.3424 83.0809 97.4358 82.9135L99.6524 82.5742C99.7815 82.5544 99.9057 82.5104 100.018 82.4445L107.002 78.3616C107.909 77.8313 108.938 78.8332 108.43 79.7519L104.817 86.2844Z" stroke="#62CCB4" stroke-width="0.08"/>
<path d="M82.6164 45.0124C87.1546 45.1117 91.9445 44.1913 91.6645 40.0326C91.0832 31.4004 77.2905 35.4171 72.0545 35.402C66.8185 35.387 71.7481 23.8362 62.2333 23.7225C52.7185 23.6088 53.6809 38.8015 50.8714 38.7934C48.062 38.7853 51.8627 24.8147 42.1808 24.7868C32.4989 24.759 30.7294 38.8218 27.6977 38.8131C25.1537 38.8057 23.4136 26.2654 22.5548 23.6084C21.368 19.937 18.4909 13.4126 9.09865 13.3856C1.05915 13.3625 1.02405 25.5316 1.00015 33.8169C0.962846 46.7502 7.84884 59.2105 15.4372 63.6339C23.0255 68.0574 27.4689 69.1058 35.6498 69.1293C46.7209 69.1612 54.4644 68.3599 63.5131 61.6577C69.1599 57.4751 74.1461 48.9581 75.1304 47.9253C76.1148 46.8924 78.0783 44.913 82.6164 45.0124Z" stroke="#62CCB4" stroke-width="0.08"/>
<path d="M142.666 30.7126C138.036 30.7259 140.685 16.823 131.301 16.85C121.918 16.877 121.671 25.899 118.634 30.7817C114.107 36.1889 100.048 30.8351 100.069 37.9985C100.09 45.1618 106.312 46.3091 109.896 44.961C113.48 43.613 117.83 38.3789 129.965 49.7365C142.101 61.094 156.635 59.0978 165.566 57.8332C184.231 55.1903 190.914 34.8029 190.974 25.3091C191.033 15.8152 191.682 0.96879 180.789 1.00005C169.897 1.03131 169.621 25.3704 166.855 25.3784C164.09 25.3863 165.68 7.84535 153.838 7.98202C141.996 8.11868 147.295 30.6993 142.666 30.7126Z" stroke="#62CCB4" stroke-width="0.08"/>
<path d="M111.34 39.0357C111.34 29.9262 103.957 22.5415 94.8487 22.5415C85.7407 22.5415 78.3572 29.9262 78.3572 39.0357C78.3572 42.5574 85.1705 53.324 84.7001 53.7356C83.3003 54.9607 81.813 57.1322 81.813 59.8171C81.813 63.5587 86.1874 65.3297 86.1874 65.3297C86.1874 65.3297 85.1813 79.1113 87.981 81.1239C90.1944 82.715 93.2816 81.7722 96.5968 80.7597C97.4749 80.4915 98.3689 80.2185 99.267 79.9863C99.7831 79.8529 100.297 79.7257 100.804 79.6001C104.129 78.7765 107.171 78.0228 108.803 76.0487C110.684 73.7737 104.779 64.4984 104.779 64.4984C104.779 64.4984 107.494 62.0921 107.578 59.8171C107.578 56.7009 107.36 56.2295 105.172 54.0857C103.809 52.749 111.34 43.3335 111.34 39.0357Z" stroke="#62CCB4" stroke-width="0.08"/>
<path d="M84.4057 62.2376C85.156 61.673 85.1377 58.6515 86.0654 59.2281C86.5984 59.5593 87.9342 61.9052 88.1032 63.9557C88.1805 64.8914 87.9543 65.6629 88.4011 65.6668C88.962 65.3739 88.6378 59.8625 87.3934 58.5343C86.1491 57.2062 84.2027 56.9548 83.639 57.5747C83.0754 58.1946 82.9612 58.563 83.0677 60.0222C83.3502 62.1415 83.9924 62.4498 84.4057 62.2376Z" stroke="#62CCB4" stroke-width="0.08"/>
<path d="M105.21 60.3914C104.334 60.0512 103.531 57.1381 102.795 57.9442C102.372 58.4074 101.723 61.0271 102.118 63.0465C102.298 63.968 102.725 64.6493 102.296 64.7742C101.677 64.6441 100.491 59.2515 101.328 57.6362C102.165 56.0208 103.97 55.2518 104.681 55.6958C105.392 56.1398 105.602 56.4634 105.896 57.8967C106.2 60.0131 105.665 60.4837 105.21 60.3914Z" stroke="#62CCB4" stroke-width="0.08"/>
<path d="M29.4911 102.055V90.3722H34.3248C35.2008 90.3722 35.9569 90.5433 36.593 90.8856C37.233 91.224 37.7262 91.6975 38.0729 92.3059C38.4195 92.9106 38.5928 93.6141 38.5928 94.4165C38.5928 95.2227 38.4157 95.9282 38.0614 96.5328C37.711 97.1337 37.2101 97.5995 36.5588 97.9304C35.9074 98.2612 35.1342 98.4266 34.2391 98.4266H31.2566V96.202H33.7134C34.14 96.202 34.4962 96.1278 34.7819 95.9795C35.0713 95.8312 35.2904 95.6239 35.4389 95.3577C35.5875 95.0877 35.6617 94.774 35.6617 94.4165C35.6617 94.0552 35.5875 93.7434 35.4389 93.481C35.2904 93.2148 35.0713 93.0095 34.7819 92.865C34.4924 92.7205 34.1362 92.6482 33.7134 92.6482H32.3193V102.055H29.4911Z" stroke="#62CCB4" stroke-width="0.08"/>
<path d="M39.9869 102.055V90.3722H48.1458V92.6653H42.8151V95.0611H47.7287V97.3599H42.8151V99.7614H48.1458V102.055H39.9869Z" stroke="#62CCB4" stroke-width="0.08"/>
<path d="M52.4481 102.055H49.4085L53.3566 90.3722H57.1218L61.0698 102.055H58.0302L55.282 93.3156H55.1906L52.4481 102.055ZM52.0425 97.4569H58.3959V99.6017H52.0425V97.4569Z" stroke="#62CCB4" stroke-width="0.08"/>
<path d="M72.4012 94.6048H69.5444C69.5064 94.3119 69.4283 94.0476 69.3102 93.8119C69.1921 93.5761 69.0359 93.3745 68.8417 93.2072C68.6474 93.0399 68.417 92.9125 68.1503 92.825C67.8875 92.7338 67.5961 92.6881 67.2762 92.6881C66.7086 92.6881 66.2192 92.8269 65.8078 93.1045C65.4002 93.3821 65.086 93.7833 64.8651 94.3081C64.6479 94.8329 64.5394 95.468 64.5394 96.2134C64.5394 96.9891 64.6498 97.6394 64.8708 98.1642C65.0955 98.6852 65.4097 99.0788 65.8135 99.345C66.2211 99.6074 66.7029 99.7386 67.259 99.7386C67.5714 99.7386 67.8551 99.6987 68.1103 99.6188C68.3694 99.539 68.596 99.423 68.7903 99.2709C68.9883 99.115 69.1502 98.9267 69.2759 98.7061C69.4054 98.4818 69.4949 98.2289 69.5444 97.9475L72.4012 97.9646C72.3517 98.4818 72.2012 98.9913 71.9498 99.4933C71.7023 99.9953 71.3614 100.454 70.9271 100.868C70.4929 101.279 69.9634 101.606 69.3388 101.849C68.7179 102.093 68.0056 102.214 67.2019 102.214C66.143 102.214 65.1945 101.982 64.3566 101.518C63.5224 101.051 62.8634 100.37 62.3797 99.4762C61.8959 98.5825 61.6541 97.4949 61.6541 96.2134C61.6541 94.928 61.8997 93.8385 62.3911 92.9448C62.8825 92.0511 63.5471 91.3723 64.3851 90.9084C65.2231 90.4444 66.162 90.2125 67.2019 90.2125C67.9104 90.2125 68.5655 90.3113 69.1674 90.5091C69.7692 90.703 70.2986 90.9883 70.7557 91.3647C71.2128 91.7374 71.5842 92.1957 71.8699 92.7395C72.1555 93.2833 72.3327 93.905 72.4012 94.6048Z" stroke="#62CCB4" stroke-width="0.08"/>
<path d="M74.0196 102.055V90.3722H82.1785V92.6653H76.8478V95.0611H81.7614V97.3599H76.8478V99.7614H82.1785V102.055H74.0196Z" stroke="#62CCB4" stroke-width="0.08"/>
<path d="M87.4064 102.055V90.3722H90.2346V95.3121H90.3888L94.2569 90.3722H97.5879L93.4399 95.5859L97.6622 102.055H94.2798L91.3659 97.4626L90.2346 98.8887V102.055H87.4064Z" stroke="#62CCB4" stroke-width="0.08"/>
<path d="M98.7035 102.055V90.3722H106.862V92.6653H101.532V95.0611H106.445V97.3599H101.532V99.7614H106.862V102.055H98.7035Z" stroke="#62CCB4" stroke-width="0.08"/>
<path d="M108.634 102.055V90.3722H116.793V92.6653H111.462V95.0611H116.375V97.3599H111.462V99.7614H116.793V102.055H108.634Z" stroke="#62CCB4" stroke-width="0.08"/>
<path d="M118.564 102.055V90.3722H123.397C124.273 90.3722 125.03 90.5433 125.666 90.8856C126.306 91.224 126.799 91.6975 127.145 92.3059C127.492 92.9106 127.665 93.6141 127.665 94.4165C127.665 95.2227 127.488 95.9282 127.134 96.5328C126.784 97.1337 126.283 97.5995 125.631 97.9304C124.98 98.2612 124.207 98.4266 123.312 98.4266H120.329V96.202H122.786C123.213 96.202 123.569 96.1278 123.854 95.9795C124.144 95.8312 124.363 95.6239 124.512 95.3577C124.66 95.0877 124.734 94.774 124.734 94.4165C124.734 94.0552 124.66 93.7434 124.512 93.481C124.363 93.2148 124.144 93.0095 123.854 92.865C123.565 92.7205 123.209 92.6482 122.786 92.6482H121.392V102.055H118.564Z" stroke="#62CCB4" stroke-width="0.08"/>
<path d="M129.059 102.055V90.3722H137.218V92.6653H131.888V95.0611H136.801V97.3599H131.888V99.7614H137.218V102.055H129.059Z" stroke="#62CCB4" stroke-width="0.08"/>
<path d="M138.99 102.055V90.3722H143.823C144.699 90.3722 145.455 90.53 146.092 90.8456C146.731 91.1575 147.225 91.6062 147.571 92.1919C147.918 92.7737 148.091 93.4639 148.091 94.2625C148.091 95.0725 147.914 95.7608 147.56 96.3275C147.206 96.8903 146.703 97.32 146.052 97.6166C145.4 97.9094 144.629 98.0559 143.738 98.0559H140.681V95.8312H143.212C143.639 95.8312 143.995 95.776 144.28 95.6658C144.57 95.5517 144.789 95.3805 144.937 95.1524C145.086 94.9204 145.16 94.6238 145.16 94.2625C145.16 93.9012 145.086 93.6027 144.937 93.3669C144.789 93.1274 144.57 92.9486 144.28 92.8307C143.991 92.709 143.635 92.6482 143.212 92.6482H141.818V102.055H138.99ZM145.577 96.7153L148.491 102.055H145.406L142.549 96.7153H145.577Z" stroke="#62CCB4" stroke-width="0.08"/>
<path d="M155.967 93.8746C155.929 93.4563 155.76 93.1311 155.459 92.8992C155.162 92.6634 154.737 92.5455 154.185 92.5455C153.819 92.5455 153.514 92.5931 153.271 92.6881C153.027 92.7832 152.844 92.9144 152.722 93.0817C152.6 93.2452 152.537 93.4335 152.534 93.6464C152.526 93.8214 152.56 93.9754 152.636 94.1085C152.716 94.2416 152.831 94.3595 152.979 94.4622C153.132 94.561 153.314 94.6485 153.528 94.7246C153.741 94.8006 153.981 94.8672 154.248 94.9242L155.253 95.1524C155.832 95.2779 156.343 95.4452 156.784 95.6544C157.23 95.8635 157.603 96.1126 157.904 96.4016C158.209 96.6906 158.439 97.0234 158.596 97.3999C158.752 97.7763 158.832 98.1985 158.836 98.6662C158.832 99.404 158.645 100.037 158.276 100.566C157.906 101.094 157.375 101.499 156.682 101.781C155.992 102.062 155.16 102.203 154.185 102.203C153.206 102.203 152.353 102.056 151.625 101.764C150.898 101.471 150.332 101.026 149.928 100.429C149.524 99.8318 149.317 99.0769 149.305 98.1642H152.014C152.036 98.5407 152.137 98.8544 152.316 99.1054C152.495 99.3564 152.741 99.5466 153.053 99.6759C153.37 99.8052 153.735 99.8698 154.15 99.8698C154.531 99.8698 154.855 99.8185 155.122 99.7158C155.392 99.6131 155.6 99.4705 155.745 99.288C155.889 99.1054 155.964 98.8963 155.967 98.6605C155.964 98.4399 155.895 98.2517 155.762 98.0958C155.628 97.9361 155.423 97.7992 155.145 97.6851C154.87 97.5672 154.52 97.4588 154.093 97.3599L152.871 97.0747C151.857 96.8427 151.059 96.4682 150.477 95.951C149.894 95.43 149.604 94.7264 149.608 93.8404C149.604 93.1178 149.799 92.4847 150.191 91.9409C150.583 91.3971 151.126 90.973 151.819 90.6688C152.513 90.3646 153.303 90.2125 154.19 90.2125C155.097 90.2125 155.884 90.3665 156.55 90.6745C157.221 90.9787 157.74 91.4066 158.11 91.958C158.479 92.5094 158.668 93.1483 158.676 93.8746H155.967Z" stroke="#62CCB4" stroke-width="0.08"/>
<path d="M61.7591 107.708C61.8074 107.907 61.8453 108.066 61.8729 108.183L62.6486 111.797V111.807C62.3314 111.849 62.1832 111.849 62.2039 111.807H62.1935C62.1521 111.697 62.1108 111.566 62.0694 111.415C62.0349 111.263 61.997 111.108 61.9556 110.95C61.9211 110.792 61.8453 110.496 61.7281 110.062L58.9871 110.031C58.9113 110.451 58.8561 110.744 58.8217 110.909C58.7941 111.067 58.7424 111.356 58.6665 111.776C58.6596 111.776 58.6424 111.78 58.6148 111.787C58.5941 111.787 58.4459 111.787 58.17 111.787C58.1838 111.738 58.208 111.604 58.2424 111.384C58.2769 111.164 58.3252 110.878 58.3872 110.527C58.4493 110.176 58.5217 109.773 58.6045 109.319C58.6941 108.857 58.7975 108.369 58.9147 107.852C59.032 107.336 59.1595 106.799 59.2974 106.241C59.4353 105.684 59.6181 105.13 59.8456 104.579C59.8939 104.572 59.9456 104.568 60.0008 104.568C60.0559 104.568 60.1111 104.568 60.1663 104.568C60.2283 104.568 60.3283 104.568 60.4662 104.568C60.611 104.562 60.7972 104.548 61.0247 104.527C61.0454 104.617 61.0765 104.754 61.1178 104.94C61.1661 105.119 61.2144 105.326 61.2626 105.56C61.3178 105.787 61.373 106.031 61.4281 106.293C61.4902 106.555 61.5488 106.806 61.604 107.047C61.6591 107.288 61.7108 107.508 61.7591 107.708ZM59.7525 109.628C60.1525 109.635 60.8075 109.628 61.7177 109.608C61.0902 106.537 60.7455 105.002 60.6834 105.002C60.6283 105.002 60.5352 105.002 60.4042 105.002C60.28 105.002 60.1835 105.006 60.1145 105.012C60.0525 105.012 59.9387 105.37 59.7732 106.086C59.6146 106.796 59.3698 107.969 59.0389 109.608C59.1216 109.615 59.3595 109.621 59.7525 109.628Z" stroke="#62CCB4" stroke-width="0.08"/>
<path d="M67.3195 104.899C67.5264 105.057 67.6919 105.236 67.816 105.436C67.9608 105.67 68.0849 105.914 68.1883 106.169C68.2918 106.417 68.3745 106.678 68.4366 106.954C68.471 107.064 68.4917 107.174 68.4986 107.284C68.5124 107.388 68.5228 107.494 68.5296 107.604C68.5159 107.928 68.5021 108.255 68.4883 108.585C68.4814 108.909 68.4469 109.229 68.3848 109.546C68.3848 109.553 68.3814 109.556 68.3745 109.556C68.3745 109.556 68.34 109.659 68.2711 109.866C68.2021 110.072 68.047 110.358 67.8056 110.723C67.5712 111.088 67.323 111.432 67.0609 111.756C66.6058 111.769 66.1473 111.78 65.6853 111.787C65.2233 111.787 64.7751 111.787 64.3407 111.787C64.3407 111.787 64.3372 111.79 64.3303 111.797C64.2545 111.253 64.2062 110.692 64.1855 110.114C64.1649 109.529 64.1545 108.937 64.1545 108.338C64.1545 107.739 64.158 107.136 64.1649 106.53C64.1786 105.918 64.1786 105.312 64.1649 104.713C64.1717 104.706 64.1752 104.699 64.1752 104.692C64.1821 104.685 64.189 104.679 64.1959 104.672C64.389 104.624 64.5889 104.593 64.7958 104.579C65.0095 104.558 65.2233 104.551 65.4371 104.558C65.6508 104.558 65.8611 104.562 66.068 104.568C66.2817 104.575 66.4886 104.575 66.6886 104.568C66.9092 104.624 67.1195 104.734 67.3195 104.899ZM67.454 110.558C67.6815 110.282 67.8884 109.68 68.0746 108.751C68.1228 108.248 68.1194 107.749 68.0642 107.253C67.8918 106.462 67.6505 105.887 67.3402 105.529C67.0368 105.171 66.7817 104.988 66.5748 104.981C66.3679 104.975 66.1956 104.971 66.0576 104.971C65.9197 104.964 65.4543 104.981 64.6613 105.023H64.5786C64.6268 105.236 64.651 105.749 64.651 106.561C64.651 107.374 64.6372 107.897 64.6096 108.131C64.5889 108.358 64.5993 108.892 64.6406 109.732C64.682 110.572 64.7096 111.095 64.7234 111.301C64.7992 111.336 65.0716 111.346 65.5405 111.332C66.0094 111.318 66.3059 111.305 66.43 111.291H66.7506C66.992 111.071 67.2264 110.826 67.454 110.558Z" stroke="#62CCB4" stroke-width="0.08"/>
<path d="M74.0387 104.713C74.156 104.713 74.2732 104.723 74.3904 104.744C74.0387 106.21 73.7112 107.477 73.4078 108.544C73.1044 109.611 72.7665 110.695 72.3942 111.797C72.339 111.797 72.2425 111.8 72.1046 111.807C71.9736 111.821 71.8529 111.811 71.7426 111.776C71.2875 110.379 70.9496 109.226 70.7289 108.317C70.5083 107.401 70.2497 106.221 69.9532 104.775V104.765C69.9946 104.716 70.0808 104.689 70.2118 104.682C70.3497 104.668 70.4462 104.668 70.5014 104.682C70.529 104.82 70.6014 105.25 70.7186 105.973C70.8358 106.689 71.0151 107.498 71.2564 108.4C71.5047 109.294 71.7874 110.214 72.1046 111.157C72.5597 109.635 73.1458 107.491 73.8629 104.723C73.8629 104.71 73.9215 104.706 74.0387 104.713Z" stroke="#62CCB4" stroke-width="0.08"/>
<path d="M78.8424 111.374C79.2837 111.394 79.7388 111.398 80.2077 111.384V111.405L80.187 111.776C79.4837 111.769 78.7666 111.78 78.0356 111.807C77.3116 111.828 76.6152 111.811 75.9463 111.756C75.9463 111.157 75.9394 110.565 75.9256 109.979C75.9118 109.387 75.9015 108.799 75.8946 108.214C75.8877 107.628 75.8877 107.043 75.8946 106.458C75.9015 105.873 75.9222 105.284 75.9567 104.692C76.2256 104.679 76.5152 104.668 76.8255 104.661C77.1427 104.648 77.4599 104.637 77.7771 104.63C78.0943 104.624 78.4011 104.617 78.6976 104.61C78.9941 104.603 79.2561 104.599 79.4837 104.599C79.7112 104.599 79.894 104.603 80.0319 104.61C80.1698 104.617 80.2387 104.624 80.2387 104.63L80.2284 105.023C80.0077 105.009 79.794 105.009 79.5871 105.023C79.3871 105.03 79.1734 105.033 78.9458 105.033C78.7183 105.026 78.4907 105.023 78.2632 105.023C78.0356 105.023 77.4357 105.037 76.4635 105.064H76.4324L76.4221 105.074C76.429 105.274 76.4118 105.766 76.3704 106.551C76.329 107.336 76.3325 107.821 76.3807 108.007L76.3911 108.017C77.3427 108.024 77.9253 108.028 78.1391 108.028C78.3528 108.028 78.5666 108.031 78.7803 108.038V108.048C78.7872 108.179 78.7907 108.279 78.7907 108.348C78.7907 108.41 78.7941 108.431 78.801 108.41C78.5183 108.424 78.3563 108.437 78.3149 108.451C78.2735 108.458 78.1908 108.458 78.0667 108.451C77.9494 108.444 77.6564 108.448 77.1875 108.461C76.7186 108.468 76.4669 108.486 76.4324 108.513C76.398 108.713 76.3842 109.029 76.3911 109.463C76.4049 109.89 76.398 110.513 76.3704 111.332L76.3807 111.343C77.5805 111.336 78.4011 111.346 78.8424 111.374Z" stroke="#62CCB4" stroke-width="0.08"/>
<path d="M86.3251 111.807C86.3113 111.814 86.1562 111.8 85.8596 111.766C85.6321 111.256 85.408 110.84 85.1874 110.516C84.9736 110.186 84.1875 108.782 82.8291 106.303C82.7119 106.062 82.6395 105.911 82.6119 105.849C82.5912 105.78 82.5705 105.808 82.5499 105.932C82.5705 106.152 82.5774 106.389 82.5705 106.644C82.5636 106.899 82.574 107.608 82.6016 108.771C82.6292 109.935 82.6429 110.661 82.6429 110.95C82.6429 111.108 82.6429 111.263 82.6429 111.415C82.6429 111.559 82.6464 111.69 82.6533 111.807C82.5774 111.828 82.4947 111.831 82.405 111.818C82.3154 111.804 82.1913 111.797 82.0327 111.797V111.074C82.0327 110.42 82.0258 109.797 82.012 109.205C82.0051 108.613 82.0017 107.993 82.0017 107.346C82.0017 106.871 82.0086 106.403 82.0223 105.942C82.0361 105.474 82.0603 105.019 82.0947 104.579C82.1637 104.565 82.2637 104.568 82.3947 104.589C82.5257 104.61 82.5912 104.627 82.5912 104.641C82.6395 104.765 82.6843 104.868 82.7257 104.951C82.7671 105.033 82.8326 105.16 82.9222 105.333C83.0187 105.498 83.098 105.653 83.1601 105.797C83.1739 105.832 83.56 106.513 84.3185 107.842C85.077 109.171 85.5045 109.931 85.6011 110.124C85.7045 110.317 85.7838 110.451 85.839 110.527C85.839 110.189 85.839 109.962 85.839 109.845C85.839 109.487 85.8321 109.191 85.8183 108.957C85.8114 108.716 85.8079 108.472 85.8079 108.224C85.7735 106.207 85.7493 105.126 85.7355 104.981C85.7217 104.83 85.7149 104.668 85.7149 104.496C85.9148 104.482 86.1148 104.496 86.3148 104.537V107.863C86.3216 108.152 86.3251 108.444 86.3251 108.74C86.3251 109.036 86.3251 109.332 86.3251 109.628C86.3251 109.828 86.3216 110.021 86.3148 110.207C86.3148 110.393 86.3148 110.582 86.3148 110.775C86.2803 111.009 86.2837 111.284 86.3251 111.601V111.807Z" stroke="#62CCB4" stroke-width="0.08"/>
<path d="M90.1629 104.527C90.9145 104.52 91.6454 104.555 92.3556 104.63C92.3625 104.796 92.3522 104.968 92.3246 105.147C92.1936 105.119 91.9971 105.109 91.735 105.116C91.473 105.123 91.0524 105.126 90.4732 105.126C90.487 105.195 90.4904 105.267 90.4835 105.343C90.4835 105.412 90.4801 105.704 90.4732 106.221C90.4732 106.737 90.4732 107.123 90.4732 107.377C90.4801 107.625 90.487 107.949 90.4939 108.348C90.5008 108.74 90.5077 109.215 90.5145 109.773C90.5214 110.324 90.5318 110.974 90.5456 111.725V111.745C90.4077 111.766 90.3008 111.776 90.2249 111.776C90.1491 111.769 90.0353 111.783 89.8836 111.818C89.8767 111.79 89.8767 111.666 89.8836 111.446C89.8905 111.226 89.894 110.899 89.894 110.465C89.9009 110.024 89.8974 109.463 89.8836 108.782C89.8767 108.1 89.856 106.916 89.8216 105.229V105.157C89.7319 105.157 89.5906 105.154 89.3975 105.147C89.2044 105.133 88.9941 105.126 88.7666 105.126C88.539 105.119 88.3735 105.116 88.2701 105.116C88.1667 105.116 88.0943 105.109 88.0529 105.095C88.0391 105.068 88.0219 105.012 88.0012 104.93C87.9874 104.847 87.9874 104.723 88.0012 104.558C88.0012 104.551 87.9977 104.548 87.9908 104.548C87.9908 104.548 87.9908 104.544 87.9908 104.537C88.6942 104.531 89.4182 104.527 90.1629 104.527Z" stroke="#62CCB4" stroke-width="0.08"/>
<path d="M97.955 104.878C98.2101 104.844 98.3791 104.851 98.4618 104.899C98.5032 105.78 98.517 106.672 98.5032 107.573C98.4894 108.468 98.4342 109.36 98.3377 110.248C98.2825 110.702 98.1101 111.088 97.8205 111.405C97.5309 111.721 97.1379 111.904 96.6414 111.952C96.3518 111.979 96.0518 111.966 95.7415 111.91C95.4313 111.862 95.1485 111.773 94.8934 111.642C94.6452 111.504 94.4487 111.287 94.3039 110.991C94.1591 110.695 94.0798 110.389 94.066 110.072C94.0177 109.308 94.0039 108.465 94.0246 107.542C94.0453 106.62 94.0487 105.704 94.0349 104.796L94.0246 104.785H94.0349C94.1384 104.785 94.3211 104.785 94.5831 104.785C94.5211 107.518 94.5314 109.263 94.6142 110.021C94.7038 110.778 95.0658 111.239 95.7002 111.405C96.3346 111.563 96.8448 111.47 97.231 111.126C97.624 110.781 97.8447 110.255 97.8929 109.546C97.9481 108.837 97.9653 108.083 97.9446 107.284C97.9308 106.479 97.9343 105.677 97.955 104.878Z" stroke="#62CCB4" stroke-width="0.08"/>
<path d="M103.27 109.907C103.574 110.141 104.253 110.764 105.308 111.776H105.318C104.973 111.776 104.756 111.783 104.666 111.797L102.95 110.238L100.974 108.699C100.974 108.912 100.971 109.215 100.964 109.608C100.957 109.993 100.957 110.31 100.964 110.558C100.977 110.799 100.991 111.029 101.005 111.25C101.019 111.47 101.029 111.645 101.036 111.776C100.843 111.818 100.695 111.831 100.591 111.818C100.488 111.804 100.419 111.8 100.384 111.807C100.398 111.807 100.409 111.714 100.415 111.528C100.422 111.336 100.426 111.084 100.426 110.775C100.426 110.465 100.426 110.11 100.426 109.711C100.426 109.305 100.422 108.888 100.415 108.461C100.415 108.028 100.409 107.601 100.395 107.181C100.388 106.754 100.381 106.365 100.374 106.014C100.367 105.656 100.357 105.353 100.343 105.105C100.336 104.851 100.326 104.679 100.312 104.589C100.698 104.534 101.122 104.482 101.584 104.434C102.046 104.386 102.529 104.389 103.032 104.445C103.439 104.465 103.805 104.582 104.129 104.796C104.453 105.009 104.704 105.274 104.884 105.591C105.063 105.907 105.156 106.259 105.163 106.644C105.177 107.023 105.077 107.391 104.863 107.749C104.732 107.997 104.556 108.203 104.335 108.369C104.122 108.534 103.246 108.606 101.708 108.585C102.453 109.226 102.974 109.666 103.27 109.907ZM102.825 104.816C102.377 104.775 101.701 104.799 100.798 104.889C100.805 104.978 100.819 105.278 100.84 105.787C100.867 106.296 100.881 106.61 100.881 106.727C100.881 106.844 100.881 107.071 100.881 107.408C100.888 107.739 100.898 107.942 100.912 108.017H100.922C102.591 108.155 103.639 108.131 104.067 107.945C104.425 107.801 104.642 107.463 104.718 106.933C104.801 106.403 104.742 105.993 104.542 105.704C104.349 105.415 104.125 105.205 103.87 105.074C103.622 104.944 103.274 104.858 102.825 104.816Z" stroke="#62CCB4" stroke-width="0.08"/>
<path d="M109.823 111.374C110.265 111.394 110.72 111.398 111.189 111.384V111.405L111.168 111.776C110.465 111.769 109.747 111.78 109.017 111.807C108.293 111.828 107.596 111.811 106.927 111.756C106.927 111.157 106.92 110.565 106.907 109.979C106.893 109.387 106.882 108.799 106.876 108.214C106.869 107.628 106.869 107.043 106.876 106.458C106.882 105.873 106.903 105.284 106.938 104.692C107.207 104.679 107.496 104.668 107.806 104.661C108.124 104.648 108.441 104.637 108.758 104.63C109.075 104.624 109.382 104.617 109.679 104.61C109.975 104.603 110.237 104.599 110.465 104.599C110.692 104.599 110.875 104.603 111.013 104.61C111.151 104.617 111.22 104.624 111.22 104.63L111.209 105.023C110.989 105.009 110.775 105.009 110.568 105.023C110.368 105.03 110.154 105.033 109.927 105.033C109.699 105.026 109.472 105.023 109.244 105.023C109.017 105.023 108.417 105.037 107.444 105.064H107.413L107.403 105.074C107.41 105.274 107.393 105.766 107.351 106.551C107.31 107.336 107.313 107.821 107.362 108.007L107.372 108.017C108.324 108.024 108.906 108.028 109.12 108.028C109.334 108.028 109.548 108.031 109.761 108.038V108.048C109.768 108.179 109.772 108.279 109.772 108.348C109.772 108.41 109.775 108.431 109.782 108.41C109.499 108.424 109.337 108.437 109.296 108.451C109.254 108.458 109.172 108.458 109.048 108.451C108.93 108.444 108.637 108.448 108.168 108.461C107.7 108.468 107.448 108.486 107.413 108.513C107.379 108.713 107.365 109.029 107.372 109.463C107.386 109.89 107.379 110.513 107.351 111.332L107.362 111.343C108.561 111.336 109.382 111.346 109.823 111.374Z" stroke="#62CCB4" stroke-width="0.08"/>
<path d="M116.574 108.09C116.567 108.819 116.567 109.381 116.574 109.773C116.587 110.516 116.798 111.005 117.205 111.239C117.611 111.473 118.067 111.566 118.57 111.518C119.053 111.456 119.459 111.215 119.79 110.795C120.121 110.375 120.239 109.739 120.142 108.885C120.301 108.878 120.452 108.864 120.597 108.844C120.666 109.25 120.673 109.632 120.618 109.99C120.563 110.341 120.442 110.658 120.256 110.94C120.07 111.222 119.825 111.456 119.521 111.642C119.225 111.821 118.887 111.914 118.508 111.921C118.26 111.955 118.004 111.955 117.742 111.921C117.48 111.893 117.236 111.828 117.008 111.725C116.781 111.614 116.587 111.463 116.429 111.27C116.277 111.078 116.188 110.837 116.16 110.547C116.146 110.3 116.136 110.041 116.129 109.773C116.122 109.504 116.115 109.205 116.108 108.875C116.108 108.537 116.108 108.159 116.108 107.739C116.115 107.312 116.122 106.82 116.129 106.262C116.163 105.904 116.201 105.673 116.243 105.57C116.305 105.391 116.381 105.226 116.47 105.074C116.567 104.923 116.681 104.789 116.812 104.672C116.887 104.617 116.97 104.572 117.06 104.537C117.149 104.496 117.243 104.462 117.339 104.434C117.656 104.331 117.97 104.29 118.28 104.31C118.591 104.331 118.88 104.403 119.149 104.527C119.425 104.644 119.673 104.803 119.894 105.002C120.114 105.202 120.29 105.432 120.421 105.694C120.552 105.949 120.632 106.228 120.659 106.53C120.687 106.833 120.687 107.147 120.659 107.47C120.308 107.518 120.152 107.525 120.194 107.491C120.208 107.388 120.204 107.174 120.183 106.851C120.163 106.52 120.132 106.269 120.09 106.097C120.056 105.918 119.908 105.66 119.646 105.322C119.384 104.985 118.828 104.806 117.98 104.785C116.96 104.765 116.491 105.866 116.574 108.09Z" stroke="#62CCB4" stroke-width="0.08"/>
<path d="M126.072 105.064C126.272 105.243 126.413 105.453 126.496 105.694C126.544 105.797 126.578 105.904 126.599 106.014C126.627 106.117 126.647 106.224 126.661 106.334C126.675 106.506 126.682 106.678 126.682 106.851C126.689 107.016 126.689 107.184 126.682 107.357C126.661 107.721 126.654 108.076 126.661 108.42C126.668 108.764 126.658 109.115 126.63 109.473L126.599 109.814C126.585 110.055 126.547 110.3 126.485 110.547C126.423 110.788 126.33 111.009 126.206 111.208C126.089 111.374 125.934 111.508 125.741 111.611C125.554 111.707 125.354 111.783 125.141 111.838C124.948 111.893 124.751 111.928 124.551 111.941C124.358 111.955 124.162 111.955 123.962 111.941C123.817 111.928 123.675 111.907 123.538 111.88C123.407 111.859 123.279 111.821 123.155 111.766C123.038 111.711 122.931 111.642 122.834 111.559C122.738 111.47 122.658 111.356 122.596 111.219C122.5 111.047 122.434 110.864 122.4 110.671C122.372 110.472 122.355 110.272 122.348 110.072C122.327 109.535 122.303 108.998 122.276 108.461C122.255 107.918 122.262 107.374 122.296 106.83C122.303 106.52 122.341 106.21 122.41 105.901C122.486 105.584 122.631 105.305 122.845 105.064C122.913 104.995 122.993 104.933 123.082 104.878C123.31 104.768 123.555 104.689 123.817 104.641C124.086 104.586 124.351 104.565 124.613 104.579C124.882 104.593 125.141 104.641 125.389 104.723C125.644 104.799 125.872 104.913 126.072 105.064ZM126.196 108.709V107.274L126.134 106.572C126.134 106.565 126.127 106.496 126.113 106.365C126.106 106.228 126.099 106.1 126.092 105.983C126.078 105.79 126.003 105.615 125.865 105.457C125.734 105.298 125.589 105.181 125.43 105.105C125.292 105.05 125.044 105.006 124.686 104.971C124.327 104.93 123.896 105.023 123.393 105.25C123.151 105.436 122.989 105.673 122.907 105.963C122.851 106.224 122.803 106.499 122.762 106.789C122.727 107.078 122.717 107.68 122.731 108.596C122.751 109.491 122.786 110.066 122.834 110.32C122.882 110.568 122.941 110.806 123.01 111.033C123.079 111.17 123.22 111.308 123.434 111.446C123.648 111.577 123.993 111.621 124.468 111.58C124.951 111.539 125.268 111.473 125.42 111.384C125.572 111.287 125.699 111.181 125.803 111.064C125.865 110.981 125.91 110.916 125.937 110.868C125.965 110.812 125.992 110.757 126.02 110.702C126.054 110.647 126.078 110.575 126.092 110.485C126.106 110.389 126.12 110.269 126.134 110.124C126.141 109.986 126.151 109.721 126.165 109.329C126.185 108.93 126.196 108.723 126.196 108.709Z" stroke="#62CCB4" stroke-width="0.08"/>
<path d="M129.344 111.807H129.323L128.91 111.797H128.879C128.865 111.721 128.855 111.625 128.848 111.508C128.848 111.391 128.848 111.274 128.848 111.157C128.855 111.04 128.858 110.929 128.858 110.826C128.865 110.723 128.868 110.647 128.868 110.599C128.937 110.572 129.01 110.551 129.086 110.537C129.161 110.523 129.22 110.523 129.261 110.537C129.31 110.544 129.358 110.558 129.406 110.578C129.406 110.585 129.403 110.644 129.396 110.754C129.389 110.857 129.382 110.978 129.375 111.115C129.368 111.253 129.361 111.387 129.354 111.518C129.348 111.649 129.344 111.738 129.344 111.787V111.807Z" stroke="#62CCB4" stroke-width="0.08"/>
<path d="M72.6427 16.3457H70.9204L70.2263 18.4368V19.8308L69.7379 21.4572L70.2263 23.6774L70.9204 26.1041L72.6427 27.9628L75.0849 29.2536L77.0386 30.5444H78.0925L79.4807 32.8679L80.3033 32.1708L82.1542 30.5444L83.4138 29.2536L82.1542 27.9628V24.3744L81.2287 22.6189L79.4807 21.0958L77.0386 19.8308L75.0849 18.4368L73.9281 17.146L72.6427 16.3457Z" stroke="#62CCB4" stroke-width="0.08"/>
<path d="M115.331 15.313H117.053L117.747 17.4041V18.7982L118.236 20.4246L117.747 22.6448L117.053 25.0715L115.331 26.9302L112.889 28.221L110.935 29.5118H109.881L108.493 31.8352L107.67 31.1382L105.819 29.5118L104.56 28.221L105.819 26.9302V23.3418L106.745 21.5863L108.493 20.0632L110.935 18.7982L112.889 17.4041L114.046 16.1133L115.331 15.313Z" stroke="#62CCB4" stroke-width="0.08"/>
<path d="M76.8828 35.069C78.1458 32.7337 80.4828 31.1721 83.1268 30.8967L94.1518 29.7484C94.7533 29.6858 95.3599 29.691 95.9603 29.7641L105.884 30.9723C107.814 31.2073 109.594 32.1326 110.894 33.577L112.701 35.5846C114.027 37.0587 114.761 38.9706 114.761 40.9524V47.4818C114.761 48.7018 114.35 49.8862 113.594 50.8444C112.562 52.1518 110.987 52.9148 109.319 52.9148H106.863C105.379 52.9148 103.93 52.4581 102.714 51.607C101.499 50.7559 100.05 50.2992 98.5655 50.2992H90.5292C89.1506 50.2992 87.7951 50.6529 86.5929 51.3264L85.591 51.8876C84.3888 52.5611 83.0333 52.9148 81.6547 52.9148H79.6655C78.509 52.9148 77.3903 52.5042 76.5092 51.7564C75.4201 50.832 74.7924 49.4767 74.7924 48.0495V41.1275C74.7924 40.0903 74.9936 39.063 75.3849 38.1022L75.8196 37.0349L76.8828 35.069Z" stroke="#62CCB4" stroke-width="0.08"/>
<path d="M104.071 43.4163C104.262 43.1044 104.725 43.1306 104.879 43.4622L109.002 52.2909C109.188 52.6884 108.763 53.0945 108.373 52.892L101.139 49.1316C100.903 49.0087 100.82 48.7115 100.959 48.4847L104.071 43.4163Z" stroke="#62CCB4" stroke-width="0.08"/>
<path d="M98.5614 39.6422C98.7749 39.4139 99.1496 39.4606 99.3003 39.7344L105.732 51.4183C105.923 51.7652 105.614 52.1746 105.228 52.0869L97.4381 50.3194C97.4047 50.3118 97.3705 50.308 97.3362 50.308H89.6473C89.2454 50.308 89.037 49.8292 89.3113 49.5358L98.5614 39.6422Z" stroke="#62CCB4" stroke-width="0.08"/>
<path d="M91.2913 44.1677C91.4483 44.008 91.6978 43.9847 91.8818 44.1125L98.4434 48.6702C98.8129 48.9268 98.631 49.5059 98.1809 49.5059H87.1357C86.7281 49.5059 86.5221 49.0156 86.8077 48.7253L91.2913 44.1677Z" stroke="#62CCB4" stroke-width="0.08"/>
<path d="M75.5843 34.386C76.8483 32.0532 79.1844 30.4939 81.8267 30.2192L94.0742 28.946C94.6745 28.8836 95.2801 28.8888 95.8793 28.9616L106.849 30.2947C108.778 30.529 110.556 31.4523 111.856 32.894L114.101 35.384C115.431 36.8589 116.167 38.773 116.167 40.7575V47.9825C116.167 49.2948 115.724 50.5688 114.91 51.5987C113.801 53.0006 112.111 53.8185 110.322 53.8185H107.673C106.077 53.8185 104.52 53.3284 103.212 52.4148C101.905 51.5012 100.348 51.0112 98.7522 51.0112H89.9466C88.5703 51.0112 87.2169 51.3637 86.016 52.0351L84.6578 52.7945C83.4569 53.4659 82.1036 53.8185 80.7272 53.8185H78.4216C77.1807 53.8185 75.9802 53.3785 75.034 52.577C73.8615 51.5837 73.1856 50.1261 73.1856 48.5909V41.0544C73.1856 40.0154 73.3875 38.9863 73.7802 38.0241L74.2903 36.7741L75.5843 34.386Z" stroke="#62CCB4" stroke-width="0.08"/>
<path d="M91.1751 44.1987L89.6551 45.6959H89.9808L90.198 45.4821L90.5237 45.2682L90.7408 45.3751L90.9579 45.1612L91.1751 45.0543L91.2836 45.2682L91.5008 45.589L91.7179 45.3751V45.0543L91.8265 44.8404L92.0436 45.0543L92.2607 45.3751L92.695 45.1612L93.1293 45.0543L93.6721 45.2682L93.2378 44.9473L92.695 44.5195L92.2607 44.1987L92.0436 44.0918H91.5008L91.1751 44.1987Z" stroke="#62CCB4" stroke-width="0.08"/>
<path d="M103.736 43.9915L102.71 45.5957L103.012 45.4954L103.112 45.2949L103.313 45.188L103.41 44.9741V44.7602L103.628 44.6532L103.736 44.8671L103.953 45.188L104.17 44.9741V44.6532L104.279 44.4393L104.496 44.6532L104.713 44.9741L105.148 44.7602L105.321 45.081L105.723 45.188L105.522 44.8671L105.221 44.0918L105.02 43.7977L104.713 43.5905H104.17L103.815 43.7977L103.736 43.9915Z" stroke="#62CCB4" stroke-width="0.08"/>
<path d="M98.4056 39.7872L96.7852 41.485L97.2114 41.2845L97.4285 41.0706L97.7542 40.8567L97.9713 40.9636L98.0907 40.8567L98.2916 40.7497V41.0706L98.7313 41.485L98.9484 40.9636V40.6428L98.9946 40.7831L99.1954 40.9837L99.4912 41.6855L99.6975 40.8567L99.9255 41.2845L100.36 41.6855L99.9255 40.8567L99.5971 40.1816L99.3963 39.9811L99.1954 39.7872L98.9484 39.6803H98.7313L98.4056 39.7872Z" stroke="#62CCB4" stroke-width="0.08"/>
<defs>
<linearGradient id="paint0_linear_79_1261" x1="96" y1="1" x2="96" y2="139" gradientUnits="userSpaceOnUse">
<stop stop-color="#90DEF6"/>
<stop offset="0.52" stop-color="#A1F5D9"/>
<stop offset="1" stop-color="#D2F5B7"/>
</linearGradient>
</defs>
</svg>
