<svg width="1849" height="130" viewBox="0 0 1849 130" fill="none" xmlns="http://www.w3.org/2000/svg">
<path d="M0.220215 2.00019H31.3602C41.9202 2.00019 50.0202 5.54019 55.6602 12.6202C61.4202 19.7002 64.3002 30.7402 64.3002 45.7402V46.1002C64.3002 53.7802 63.5802 60.2602 62.1402 65.5402C60.8202 70.8202 58.7802 75.0802 56.0202 78.3202C53.3802 81.5602 49.9602 83.9002 45.7602 85.3402C41.5602 86.7802 36.7002 87.5002 31.1802 87.5002H25.4202V128H0.220215V2.00019ZM25.4202 23.7802V65.7202H31.1802C34.0602 65.7202 36.1002 64.9402 37.3002 63.3802C38.5002 61.7002 39.1002 58.9402 39.1002 55.1002V34.7602C39.1002 30.9202 38.5002 28.1602 37.3002 26.4802C36.1002 24.6802 34.0602 23.7802 31.1802 23.7802H25.4202Z" fill="white"/>
<path d="M169.026 23.7802H148.326V51.1402H168.666V72.9202H148.326V106.04H169.566V128H123.126V2.00019H169.026V23.7802Z" fill="white"/>
<path d="M240.335 2.00019H279.755L293.255 128H268.055L260.675 44.8402H258.875L251.495 128H226.295L240.335 2.00019ZM270.935 96.6802H248.075V74.9002H270.935V96.6802Z" fill="white"/>
<path d="M374.447 31.3402V98.6602C374.447 100.34 374.627 101.78 374.987 102.98C375.467 104.18 376.007 105.14 376.607 105.86C377.327 106.58 378.107 107.12 378.947 107.48C379.907 107.72 380.867 107.84 381.827 107.84C382.787 107.84 383.687 107.72 384.527 107.48C385.487 107.12 386.267 106.58 386.867 105.86C387.587 105.14 388.127 104.18 388.487 102.98C388.967 101.78 389.207 100.34 389.207 98.6602V69.8602H414.407V96.8602C414.407 102.38 413.627 107.18 412.067 111.26C410.507 115.34 408.287 118.76 405.407 121.52C402.527 124.28 399.047 126.38 394.967 127.82C390.887 129.14 386.387 129.8 381.467 129.8C376.547 129.8 372.107 129.14 368.147 127.82C364.187 126.38 360.767 124.34 357.887 121.7C355.127 118.94 352.967 115.52 351.407 111.44C349.967 107.24 349.247 102.38 349.247 96.8602V32.9602C349.247 27.4402 349.967 22.6402 351.407 18.5602C352.967 14.3602 355.127 10.9402 357.887 8.3002C360.767 5.5402 364.187 3.5002 368.147 2.18019C372.107 0.860194 376.547 0.200195 381.467 0.200195C386.387 0.200195 390.887 0.920197 394.967 2.3602C399.047 3.6802 402.527 5.7202 405.407 8.4802C408.287 11.2402 410.507 14.6602 412.067 18.7402C413.627 22.8202 414.407 27.5602 414.407 32.9602V59.9602H389.207V31.3402C389.207 29.5402 388.967 28.0402 388.487 26.8402C388.127 25.6402 387.587 24.7402 386.867 24.1402C386.267 23.4202 385.487 22.8802 384.527 22.5202C383.687 22.1602 382.787 21.9802 381.827 21.9802C380.867 21.9802 379.907 22.1602 378.947 22.5202C378.107 22.8802 377.327 23.4202 376.607 24.1402C376.007 24.7402 375.467 25.6402 374.987 26.8402C374.627 28.0402 374.447 29.5402 374.447 31.3402Z" fill="white"/>
<path d="M520.167 23.7802H499.467V51.1402H519.807V72.9202H499.467V106.04H520.707V128H474.267V2.00019H520.167V23.7802Z" fill="white"/>
<path d="M676.061 2.00019H715.481L728.981 128H703.781L696.401 44.8402H694.601L687.221 128H662.021L676.061 2.00019ZM706.661 96.6802H683.801V74.9002H706.661V96.6802Z" fill="white"/>
<path d="M786.912 2.00019H818.592C823.512 2.00019 828.012 2.6602 832.092 3.9802C836.172 5.1802 839.592 7.0402 842.352 9.56019C845.232 12.0802 847.452 15.3202 849.012 19.2802C850.572 23.2402 851.352 27.9202 851.352 33.3202V96.6802C851.352 102.08 850.572 106.76 849.012 110.72C847.452 114.68 845.232 117.92 842.352 120.44C839.592 122.96 836.172 124.88 832.092 126.2C828.012 127.4 823.512 128 818.592 128H786.912V2.00019ZM812.292 23.7802V106.04H818.412C819.492 106.04 820.512 105.92 821.472 105.68C822.432 105.44 823.272 105.02 823.992 104.42C824.712 103.7 825.252 102.74 825.612 101.54C825.972 100.34 826.152 98.8402 826.152 97.0402V32.9602C826.152 31.1602 825.972 29.6602 825.612 28.4602C825.252 27.2602 824.712 26.3602 823.992 25.7602C823.272 25.0402 822.432 24.5602 821.472 24.3202C820.512 23.9602 819.492 23.7802 818.412 23.7802H812.292Z" fill="white"/>
<path d="M907.306 2.00019H932.506L939.886 100.28H941.686L949.066 2.00019H974.266L960.226 128H920.806L907.306 2.00019Z" fill="white"/>
<path d="M1078.27 23.7802H1057.57V51.1402H1077.91V72.9202H1057.57V106.04H1078.81V128H1032.37V2.00019H1078.27V23.7802Z" fill="white"/>
<path d="M1178.92 2.00019H1204.12V128H1176.22L1158.76 45.7402H1157.32L1162.9 128H1137.7V2.00019H1165.6L1183.6 84.8002H1185.04L1178.92 2.00019Z" fill="white"/>
<path d="M1324.42 2.00019V23.7802H1305.88V128H1280.68V23.7802H1262.32V2.00019H1324.42Z" fill="white"/>
<path d="M1382.28 2.00019H1407.48V98.6602C1407.48 100.34 1407.66 101.78 1408.02 102.98C1408.38 104.18 1408.86 105.14 1409.46 105.86C1410.18 106.58 1410.96 107.12 1411.8 107.48C1412.64 107.72 1413.48 107.84 1414.32 107.84C1415.28 107.84 1416.18 107.72 1417.02 107.48C1417.86 107.12 1418.58 106.58 1419.18 105.86C1419.78 105.14 1420.26 104.18 1420.62 102.98C1421.1 101.78 1421.34 100.34 1421.34 98.6602V2.00019H1446.54V96.8602C1446.54 102.38 1445.76 107.18 1444.2 111.26C1442.64 115.34 1440.42 118.76 1437.54 121.52C1434.78 124.28 1431.36 126.38 1427.28 127.82C1423.32 129.14 1418.88 129.8 1413.96 129.8C1409.04 129.8 1404.6 129.14 1400.64 127.82C1396.8 126.38 1393.5 124.34 1390.74 121.7C1388.1 118.94 1386 115.52 1384.44 111.44C1383 107.24 1382.28 102.38 1382.28 96.8602V2.00019Z" fill="white"/>
<path d="M1506.42 2.00019H1537.56C1548 2.00019 1556.1 4.82019 1561.86 10.4602C1567.62 15.9802 1570.5 24.3802 1570.5 35.6602V36.5602C1570.5 41.6002 1569.9 46.0402 1568.7 49.8802C1567.62 53.6002 1566.18 56.7802 1564.38 59.4202C1562.7 62.0602 1560.72 64.1002 1558.44 65.5402C1556.28 66.9802 1554.12 67.8202 1551.96 68.0602V69.6802C1554.12 69.9202 1556.28 70.8202 1558.44 72.3802C1560.72 73.9402 1562.7 76.0402 1564.38 78.6802C1566.18 81.2002 1567.62 84.3202 1568.7 88.0402C1569.9 91.7602 1570.5 95.9002 1570.5 100.46V102.44C1570.5 107.84 1570.56 112.58 1570.68 116.66C1570.92 120.62 1571.46 124.4 1572.3 128H1547.1C1546.26 124.16 1545.72 120.14 1545.48 115.94C1545.36 111.62 1545.3 107 1545.3 102.08V89.1202C1545.3 85.8802 1544.64 83.5402 1543.32 82.1002C1542.12 80.5402 1540.14 79.7602 1537.38 79.7602H1531.62V128H1506.42V2.00019ZM1531.62 23.7802V57.9802H1537.38C1540.14 57.9802 1542.12 57.2002 1543.32 55.6402C1544.64 54.0802 1545.3 51.6202 1545.3 48.2602V33.5002C1545.3 30.2602 1544.64 27.8602 1543.32 26.3002C1542.12 24.6202 1540.14 23.7802 1537.38 23.7802H1531.62Z" fill="white"/>
<path d="M1676.63 23.7802H1655.93V51.1402H1676.27V72.9202H1655.93V106.04H1677.17V128H1630.73V2.00019H1676.63V23.7802Z" fill="white"/>
<path d="M1800.86 46.4602H1775.66V31.3402C1775.66 28.3402 1775 26.0602 1773.68 24.5002C1772.48 22.8202 1770.74 21.9802 1768.46 21.9802C1766.18 21.9802 1764.38 22.8202 1763.06 24.5002C1761.86 26.0602 1761.26 28.3402 1761.26 31.3402V39.8002C1761.26 41.6002 1761.44 43.2202 1761.8 44.6602C1762.16 45.9802 1762.88 47.3002 1763.96 48.6202C1765.04 49.8202 1766.6 51.0802 1768.64 52.4002C1770.8 53.6002 1773.68 55.0402 1777.28 56.7202L1783.22 59.4202C1786.58 60.9802 1789.4 62.7202 1791.68 64.6402C1793.96 66.5602 1795.76 68.9002 1797.08 71.6602C1798.52 74.3002 1799.54 77.4202 1800.14 81.0202C1800.74 84.6202 1801.04 88.9402 1801.04 93.9802V96.8602C1801.04 107.42 1798.16 115.58 1792.4 121.34C1786.64 126.98 1778.54 129.8 1768.1 129.8C1757.66 129.8 1749.68 126.98 1744.16 121.34C1738.64 115.7 1735.88 107.54 1735.88 96.8602V83.3602H1761.08V98.6602C1761.08 101.66 1761.68 103.94 1762.88 105.5C1764.2 107.06 1766.06 107.84 1768.46 107.84C1770.74 107.84 1772.54 107.06 1773.86 105.5C1775.18 103.94 1775.84 101.72 1775.84 98.8402V89.6602C1775.84 87.8602 1775.66 86.3002 1775.3 84.9802C1774.94 83.5402 1774.22 82.2802 1773.14 81.2002C1772.18 80.0002 1770.68 78.8002 1768.64 77.6002C1766.72 76.4002 1764.08 75.0202 1760.72 73.4602L1753.88 70.2202C1750.52 68.6602 1747.7 66.8602 1745.42 64.8202C1743.14 62.7802 1741.28 60.3802 1739.84 57.6202C1738.52 54.8602 1737.56 51.6802 1736.96 48.0802C1736.36 44.3602 1736.06 40.0402 1736.06 35.1202V32.9602C1736.06 22.4002 1738.82 14.3002 1744.34 8.66019C1749.86 3.02019 1757.78 0.200195 1768.1 0.200195C1778.54 0.200195 1786.58 3.08019 1792.22 8.84019C1797.98 14.4802 1800.86 22.5202 1800.86 32.9602V46.4602Z" fill="white"/>
<path d="M1826.51 118.725H1822.96C1822.91 118.36 1822.81 118.031 1822.67 117.737C1822.52 117.444 1822.32 117.193 1822.08 116.985C1821.84 116.776 1821.56 116.618 1821.22 116.509C1820.9 116.395 1820.53 116.338 1820.14 116.338C1819.43 116.338 1818.82 116.511 1818.31 116.857C1817.81 117.202 1817.41 117.702 1817.14 118.355C1816.87 119.009 1816.74 119.799 1816.74 120.727C1816.74 121.693 1816.87 122.503 1817.15 123.156C1817.43 123.805 1817.82 124.295 1818.32 124.627C1818.83 124.953 1819.42 125.117 1820.12 125.117C1820.5 125.117 1820.86 125.067 1821.17 124.968C1821.5 124.868 1821.78 124.724 1822.02 124.534C1822.27 124.34 1822.47 124.106 1822.62 123.831C1822.78 123.552 1822.9 123.237 1822.96 122.887L1826.51 122.908C1826.45 123.552 1826.26 124.186 1825.95 124.811C1825.64 125.436 1825.22 126.007 1824.68 126.523C1824.14 127.034 1823.48 127.441 1822.7 127.745C1821.93 128.048 1821.04 128.199 1820.04 128.199C1818.73 128.199 1817.55 127.91 1816.51 127.333C1815.47 126.75 1814.65 125.903 1814.05 124.79C1813.45 123.677 1813.15 122.323 1813.15 120.727C1813.15 119.127 1813.45 117.771 1814.06 116.658C1814.68 115.545 1815.5 114.7 1816.54 114.122C1817.59 113.545 1818.75 113.256 1820.04 113.256C1820.93 113.256 1821.74 113.379 1822.49 113.625C1823.24 113.867 1823.89 114.222 1824.46 114.691C1825.03 115.155 1825.49 115.725 1825.85 116.402C1826.2 117.079 1826.42 117.853 1826.51 118.725Z" fill="#96D8E0"/>
<path d="M1848.05 120.727C1848.05 122.328 1847.74 123.684 1847.12 124.797C1846.51 125.91 1845.68 126.755 1844.62 127.333C1843.58 127.91 1842.4 128.199 1841.1 128.199C1839.8 128.199 1838.62 127.908 1837.57 127.325C1836.53 126.743 1835.7 125.898 1835.08 124.79C1834.47 123.677 1834.16 122.323 1834.16 120.727C1834.16 119.127 1834.47 117.771 1835.08 116.658C1835.7 115.545 1836.53 114.7 1837.57 114.122C1838.62 113.545 1839.8 113.256 1841.1 113.256C1842.4 113.256 1843.58 113.545 1844.62 114.122C1845.68 114.7 1846.51 115.545 1847.12 116.658C1847.74 117.771 1848.05 119.127 1848.05 120.727ZM1844.45 120.727C1844.45 119.781 1844.32 118.98 1844.05 118.327C1843.78 117.673 1843.4 117.179 1842.9 116.843C1842.4 116.506 1841.8 116.338 1841.1 116.338C1840.41 116.338 1839.81 116.506 1839.31 116.843C1838.8 117.179 1838.42 117.673 1838.15 118.327C1837.88 118.98 1837.75 119.781 1837.75 120.727C1837.75 121.674 1837.88 122.475 1838.15 123.128C1838.42 123.781 1838.8 124.276 1839.31 124.612C1839.81 124.949 1840.41 125.117 1841.1 125.117C1841.8 125.117 1842.4 124.949 1842.9 124.612C1843.4 124.276 1843.78 123.781 1844.05 123.128C1844.32 122.475 1844.45 121.674 1844.45 120.727Z" fill="#96D8E0"/>
</svg>
